<?xml version="1.0" encoding="UTF-8"?>
<svg width="149px" height="48px" viewBox="0 0 149 48" version="1.1" xmlns="http://www.w3.org/2000/svg" xmlns:xlink="http://www.w3.org/1999/xlink">
    <!-- Generator: Sketch 39.1 (31720) - http://www.bohemiancoding.com/sketch -->
    <title>gei-logo</title>
    <desc>Created with Sketch.</desc>
    <defs></defs>
    <g id="gei-logo" stroke="none" stroke-width="1" fill="none" fill-rule="evenodd">
        <g>
            <path d="M2.3955,33.9116 L2.3955,21.5766 C2.3955,20.9246 1.9085,20.5996 1.4215,20.5996 C0.9345,20.5996 0.4465,20.9246 0.4465,21.5766 L0.4465,33.9116 C0.4465,34.5596 0.9345,34.8666 1.4215,34.8666 C1.9085,34.8666 2.3955,34.5596 2.3955,33.9116 M13.8995,33.9116 L13.8995,21.5766 C13.8995,20.9246 13.3915,20.5996 12.9045,20.5996 C12.4175,20.5996 11.9505,20.9246 11.9505,21.5766 L11.9505,30.0696 L8.0665,21.3116 C7.7615,20.5996 7.2735,20.5996 7.0305,20.5996 L6.8075,20.5996 C6.1575,20.5996 5.7715,21.0676 5.7715,21.6166 L5.7715,33.9116 C5.7715,34.5596 6.2795,34.8666 6.7665,34.8666 C7.2535,34.8666 7.7205,34.5596 7.7205,33.9116 L7.7205,25.2946 L11.6045,34.0526 C11.9305,34.8046 12.4375,34.8666 12.7015,34.8666 L12.9245,34.8666 C13.4725,34.8666 13.8995,34.4196 13.8995,33.9116 M24.6305,31.1066 C24.6305,26.8996 18.4925,26.4526 18.4925,24.5006 L18.4925,24.0936 C18.4925,23.0976 19.5095,22.5286 20.4035,22.5286 L20.5865,22.5286 C21.6645,22.5286 22.2345,22.7516 22.4785,23.8496 C22.6005,24.3986 22.9255,24.7456 23.4935,24.7456 C24.0415,24.7456 24.4275,24.3786 24.4275,23.8306 L24.4275,23.7076 C24.4275,21.6346 22.5395,20.5996 20.5865,20.5996 L20.4035,20.5996 C18.5535,20.5996 16.5435,22.0006 16.5435,24.1956 L16.5435,24.5616 C16.5435,28.2416 22.6815,28.2616 22.6815,31.1066 C22.6815,32.3066 21.7865,32.9586 20.5865,32.9586 L20.3835,32.9586 C19.2245,32.9586 18.3705,32.2256 18.3705,30.9256 C18.3705,30.2726 17.8835,29.9486 17.3955,29.9486 C16.9085,29.9486 16.4215,30.2726 16.4215,30.9256 C16.4215,33.4256 18.2485,34.8666 20.3835,34.8666 L20.5865,34.8666 C22.8645,34.8666 24.6305,33.4036 24.6305,31.1066 M33.6545,21.6966 C33.6545,21.2086 33.3295,20.7216 32.6785,20.7216 L26.8685,20.7216 C26.2185,20.7216 25.8925,21.2086 25.8925,21.6966 C25.8925,22.1636 26.2185,22.6506 26.8685,22.6506 L28.7995,22.6506 L28.7995,33.9116 C28.7995,34.5596 29.2865,34.8666 29.7735,34.8666 C30.2605,34.8666 30.7475,34.5596 30.7475,33.9116 L30.7475,22.6506 L32.6785,22.6506 C33.3295,22.6506 33.6545,22.1636 33.6545,21.6966 M37.6985,33.9116 L37.6985,21.5766 C37.6985,20.9246 37.2115,20.5996 36.7245,20.5996 C36.2375,20.5996 35.7505,20.9246 35.7505,21.5766 L35.7505,33.9116 C35.7505,34.5596 36.2375,34.8666 36.7245,34.8666 C37.2115,34.8666 37.6985,34.5596 37.6985,33.9116 M47.5565,21.6966 C47.5565,21.2086 47.2305,20.7216 46.5805,20.7216 L40.7705,20.7216 C40.1195,20.7216 39.7945,21.2086 39.7945,21.6966 C39.7945,22.1636 40.1195,22.6506 40.7705,22.6506 L42.7015,22.6506 L42.7015,33.9116 C42.7015,34.5596 43.1885,34.8666 43.6755,34.8666 C44.1625,34.8666 44.6495,34.5596 44.6495,33.9116 L44.6495,22.6506 L46.5805,22.6506 C47.2305,22.6506 47.5565,22.1636 47.5565,21.6966 M57.5965,30.9256 L57.5965,21.5766 C57.5965,20.9246 57.1095,20.5996 56.6225,20.5996 C56.1345,20.5996 55.6475,20.9246 55.6475,21.5766 L55.6475,30.9256 C55.6475,32.0036 54.7125,32.9366 53.6345,32.9366 L53.4515,32.9366 C52.3325,32.9366 51.4175,32.0036 51.4175,30.9256 L51.4175,21.5766 C51.4175,20.9246 50.9305,20.5996 50.4435,20.5996 C49.9565,20.5996 49.4695,20.9246 49.4695,21.5766 L49.4695,30.9256 C49.4695,33.1206 51.2555,34.8666 53.4315,34.8666 L53.6345,34.8666 C55.8305,34.8666 57.5965,33.1206 57.5965,30.9256 M67.2905,21.6966 C67.2905,21.2086 66.9655,20.7216 66.3155,20.7216 L60.5055,20.7216 C59.8545,20.7216 59.5295,21.2086 59.5295,21.6966 C59.5295,22.1636 59.8545,22.6506 60.5055,22.6506 L62.4355,22.6506 L62.4355,33.9116 C62.4355,34.5596 62.9235,34.8666 63.4105,34.8666 C63.8975,34.8666 64.3845,34.5596 64.3845,33.9116 L64.3845,22.6506 L66.3155,22.6506 C66.9655,22.6506 67.2905,22.1636 67.2905,21.6966" id="Fill-1" fill="#B00345"></path>
            <polygon id="Clip-4" points="2.48690093e-14 14.2652 2.48690093e-14 47.7056 148.912 47.7056 148.912 -0.0004 2.48690093e-14 -0.0004 2.48690093e-14 14.2652 117.6389 14.2652 117.6389 0.0002 -0.0001 0.0002 -0.0001 14.2652"></polygon>
            <path d="M8.0869,10.3242 L8.0869,7.2742 C8.0869,6.7262 7.6429,6.3012 7.0969,6.3012 L4.5089,6.3012 C3.8609,6.3012 3.5379,6.7672 3.5379,7.2552 C3.5379,7.7422 3.8609,8.2282 4.5089,8.2282 L6.1479,8.2282 L6.1479,10.3242 C6.1479,11.4222 5.2169,12.3572 4.1449,12.3572 L3.9419,12.3572 C2.8289,12.3572 1.9389,11.5232 1.9389,10.3852 L1.9389,3.8812 C1.9389,2.7622 2.8289,1.9282 3.9419,1.9282 L4.1449,1.9282 C5.1359,1.9282 6.0669,2.4162 6.1679,3.3322 C6.2489,3.9622 6.6929,4.2062 7.1179,4.2062 C7.6019,4.2062 8.0669,3.9212 8.0669,3.2912 L8.0669,3.1882 C7.9049,1.4212 6.2289,0.0002 4.1449,0.0002 L3.9419,0.0002 C1.7769,0.0002 -0.0001,1.6842 -0.0001,3.8812 L-0.0001,10.3852 C-0.0001,12.6002 1.7569,14.2652 3.9419,14.2652 L4.1449,14.2652 C6.3299,14.2652 8.0869,12.5402 8.0869,10.3242 L8.0869,10.3242 Z M19.1289,13.2102 C19.1289,12.7232 18.8049,12.2352 18.1579,12.2352 L12.9809,12.2352 L12.9809,7.9032 L16.4999,7.9032 C17.1469,7.9032 17.4709,7.4172 17.4709,6.9292 C17.4709,6.4412 17.1469,5.9752 16.4999,5.9752 L12.9809,5.9752 L12.9809,2.0502 L18.1579,2.0502 C18.8049,2.0502 19.1289,1.5622 19.1289,1.0952 C19.1289,0.6082 18.8049,0.1222 18.1579,0.1222 L12.0119,0.1222 C11.5069,0.1222 11.0419,0.5892 11.0419,1.0952 L11.0419,13.1892 C11.0419,13.6962 11.5069,14.1642 12.0119,14.1642 L18.1579,14.1642 C18.8049,14.1642 19.1289,13.6772 19.1289,13.2102 L19.1289,13.2102 Z M29.1399,10.3862 L29.1399,3.8802 C29.1399,1.6842 27.3829,0.0002 25.1969,0.0002 L25.0149,0.0002 C22.8299,0.0002 21.0529,1.6842 21.0529,3.8802 L21.0529,10.3862 C21.0529,12.6002 22.8299,14.2652 24.9949,14.2652 L25.1969,14.2652 C27.3829,14.2652 29.1399,12.6002 29.1399,10.3862 L29.1399,10.3862 Z M27.2009,10.3862 C27.2009,11.5232 26.3099,12.3572 25.1969,12.3572 L24.9949,12.3572 C23.8819,12.3572 22.9919,11.5232 22.9919,10.3862 L22.9919,3.8802 C22.9919,2.7622 23.8819,1.9282 24.9949,1.9282 L25.1969,1.9282 C26.3099,1.9282 27.2009,2.7422 27.2009,3.8802 L27.2009,10.3862 Z M50.5769,10.3242 L50.5769,7.2742 C50.5769,6.7262 50.1319,6.3012 49.5869,6.3012 L46.9979,6.3012 C46.3509,6.3012 46.0269,6.7672 46.0269,7.2552 C46.0269,7.7422 46.3509,8.2282 46.9979,8.2282 L48.6379,8.2282 L48.6379,10.3242 C48.6379,11.4222 47.7069,12.3572 46.6339,12.3572 L46.4319,12.3572 C45.3189,12.3572 44.4279,11.5232 44.4279,10.3852 L44.4279,3.8812 C44.4279,2.7622 45.3189,1.9282 46.4319,1.9282 L46.6339,1.9282 C47.6259,1.9282 48.5569,2.4162 48.6579,3.3322 C48.7389,3.9622 49.1829,4.2062 49.6069,4.2062 C50.0919,4.2062 50.5559,3.9212 50.5559,3.2912 L50.5559,3.1882 C50.3949,1.4212 48.7179,0.0002 46.6339,0.0002 L46.4319,0.0002 C44.2669,0.0002 42.4899,1.6842 42.4899,3.8812 L42.4899,10.3852 C42.4899,12.6002 44.2469,14.2652 46.4319,14.2652 L46.6339,14.2652 C48.8189,14.2652 50.5769,12.5402 50.5769,10.3242 L50.5769,10.3242 Z M67.6049,13.2102 C67.6049,12.7232 67.2809,12.2352 66.6339,12.2352 L61.4569,12.2352 L61.4569,7.9032 L64.9759,7.9032 C65.6229,7.9032 65.9459,7.4172 65.9459,6.9292 C65.9459,6.4412 65.6229,5.9752 64.9759,5.9752 L61.4569,5.9752 L61.4569,2.0502 L66.6339,2.0502 C67.2809,2.0502 67.6049,1.5622 67.6049,1.0952 C67.6049,0.6082 67.2809,0.1222 66.6339,0.1222 L60.4869,0.1222 C59.9819,0.1222 59.5179,0.5892 59.5179,1.0952 L59.5179,13.1892 C59.5179,13.6962 59.9819,14.1642 60.4869,14.1642 L66.6339,14.1642 C67.2809,14.1642 67.6049,13.6772 67.6049,13.2102 L67.6049,13.2102 Z M77.5749,10.8932 L77.5749,10.8332 C77.5749,10.2032 77.2309,9.7752 76.5839,9.7752 C76.0379,9.7752 75.7759,10.1002 75.6329,10.6082 C75.4509,11.6052 74.7029,12.3572 73.6519,12.3572 L73.4709,12.3572 C72.3579,12.3572 71.4669,11.5452 71.4669,10.4052 L71.4669,3.8592 C71.4669,2.7422 72.3369,1.9282 73.4709,1.9282 L73.6519,1.9282 C74.7029,1.9282 75.4509,2.6812 75.6329,3.6772 C75.7759,4.1842 76.0379,4.5102 76.5839,4.5102 C77.2309,4.5102 77.5749,4.0832 77.5749,3.4532 L77.5749,3.3912 C77.5749,1.4212 75.6129,0.0002 73.6519,0.0002 L73.4709,0.0002 C71.2859,0.0002 69.5279,1.6842 69.5279,3.8802 L69.5279,10.3862 C69.5279,12.6002 71.2859,14.2652 73.4709,14.2652 L73.6519,14.2652 C75.6129,14.2652 77.5749,12.8862 77.5749,10.8932 L77.5749,10.8932 Z M88.0099,13.3312 C88.0099,13.1882 87.9709,13.0472 87.9089,12.8842 L84.5519,5.9542 L87.5449,1.5232 C87.6469,1.3612 87.7069,1.1792 87.7069,0.9742 C87.7069,0.4272 87.2819,0.0002 86.6949,0.0002 C86.4339,0.0002 86.1289,0.1222 85.9269,0.4272 L81.8609,6.4412 L81.8609,0.9742 C81.8609,0.3252 81.3779,0.0002 80.8929,0.0002 C80.4079,0.0002 79.9229,0.3252 79.9229,0.9742 L79.9229,13.3102 C79.9229,13.9612 80.4079,14.2652 80.8929,14.2652 C81.3779,14.2652 81.8609,13.9612 81.8609,13.3102 L81.8609,9.9172 L83.2979,7.8242 L86.1509,13.7362 C86.3319,14.1242 86.6759,14.2652 86.9989,14.2652 C87.5859,14.2652 88.0099,13.8392 88.0099,13.3312 L88.0099,13.3312 Z M98.2839,13.2102 C98.2839,12.7232 97.9599,12.2352 97.3129,12.2352 L92.1369,12.2352 L92.1369,7.9032 L95.6539,7.9032 C96.3019,7.9032 96.6259,7.4172 96.6259,6.9292 C96.6259,6.4412 96.3019,5.9752 95.6539,5.9752 L92.1369,5.9752 L92.1369,2.0502 L97.3129,2.0502 C97.9599,2.0502 98.2839,1.5622 98.2839,1.0952 C98.2839,0.6082 97.9599,0.1222 97.3129,0.1222 L91.1659,0.1222 C90.6619,0.1222 90.1969,0.5892 90.1969,1.0952 L90.1969,13.1892 C90.1969,13.6962 90.6619,14.1642 91.1659,14.1642 L97.3129,14.1642 C97.9599,14.1642 98.2839,13.6772 98.2839,13.2102 L98.2839,13.2102 Z M108.6799,4.2662 L108.6799,4.0842 C108.6799,1.8882 106.9219,0.1222 104.7359,0.1222 L101.4399,0.1222 C100.9359,0.1222 100.4709,0.5892 100.4709,1.0952 L100.4709,13.3102 C100.4709,13.9612 100.9549,14.2652 101.4599,14.2652 C101.9449,14.2652 102.4099,13.9612 102.4099,13.3102 L102.4099,8.2092 L104.0489,8.2092 L106.6589,13.7362 C106.8409,14.1242 107.1639,14.2652 107.4859,14.2652 C108.1129,14.2652 108.5179,13.8582 108.5179,13.3102 C108.5179,13.1882 108.4969,13.0462 108.4159,12.8842 L106.1129,8.0252 C107.6489,7.4982 108.6799,6.0152 108.6799,4.2662 L108.6799,4.2662 Z M106.7399,4.2662 C106.7399,5.3862 105.9319,6.2792 104.8189,6.2792 L102.4099,6.2792 L102.4099,2.0502 L104.7969,2.0502 C105.9099,2.0502 106.7399,2.9442 106.7399,4.0842 L106.7399,4.2662 Z M117.6389,1.0952 C117.6389,0.6082 117.3149,0.1222 116.6669,0.1222 L110.8869,0.1222 C110.2379,0.1222 109.9149,0.6082 109.9149,1.0952 C109.9149,1.5622 110.2379,2.0502 110.8869,2.0502 L112.8069,2.0502 L112.8069,13.3102 C112.8069,13.9612 113.2919,14.2652 113.7759,14.2652 C114.2619,14.2652 114.7459,13.9612 114.7459,13.3102 L114.7459,2.0502 L116.6669,2.0502 C117.3149,2.0502 117.6389,1.5622 117.6389,1.0952 L117.6389,1.0952 Z" id="Fill-3" fill="#B00345"></path>
            <path d="M31.4185,4.2666 L31.4185,4.0836 C31.4185,1.8876 33.1845,0.1216 35.3805,0.1216 L38.6935,0.1216 C39.2005,0.1216 39.6675,0.5886 39.6675,1.0956 L39.6675,13.3096 C39.6675,13.9606 39.1805,14.2656 38.6735,14.2656 C38.1855,14.2656 37.7195,13.9606 37.7195,13.3096 L37.7195,8.2086 L36.0715,8.2086 L33.4485,13.7376 C33.2655,14.1226 32.9405,14.2656 32.6165,14.2656 C31.9865,14.2656 31.5805,13.8586 31.5805,13.3096 C31.5805,13.1886 31.6015,13.0456 31.6825,12.8836 L33.9975,8.0256 C32.4535,7.4976 31.4185,6.0156 31.4185,4.2666 L31.4185,4.2666 Z M33.3675,4.2666 C33.3675,5.3856 34.1805,6.2806 35.2995,6.2806 L37.7195,6.2806 L37.7195,2.0496 L35.3195,2.0496 C34.2005,2.0496 33.3675,2.9456 33.3675,4.0836 L33.3675,4.2666 Z" id="Fill-6" fill="#009EE3"></path>
            <path d="M77.4609,33.687 C77.4609,33.199 77.1369,32.712 76.4899,32.712 L71.3129,32.712 L71.3129,28.38 L74.8319,28.38 C75.4789,28.38 75.8029,27.894 75.8029,27.406 C75.8029,26.917 75.4789,26.453 74.8319,26.453 L71.3129,26.453 L71.3129,22.527 L76.4899,22.527 C77.1369,22.527 77.4609,22.039 77.4609,21.572 C77.4609,21.086 77.1369,20.6 76.4899,20.6 L70.3429,20.6 C69.8369,20.6 69.3749,21.066 69.3749,21.572 L69.3749,33.666 C69.3749,34.173 69.8369,34.64 70.3429,34.64 L76.4899,34.64 C77.1369,34.64 77.4609,34.154 77.4609,33.687" id="Fill-8" fill="#B00345"></path>
            <path d="M0.1382,43.5757 L0.9372,43.5757 L0.9372,43.1587 C0.9372,41.9097 1.5752,41.5017 2.5862,41.5017 C2.8672,41.5017 3.2492,41.5607 3.5382,41.6297 L3.5382,42.7517 L3.0452,42.7517 C3.0282,42.1737 2.9172,41.8587 2.5012,41.8587 C2.0162,41.8587 1.6512,42.1807 1.6512,43.0987 L1.6512,43.5757 L2.7222,43.5757 L2.7222,43.9577 L1.6512,43.9577 L1.6512,46.6097 C1.6512,47.1447 1.7792,47.2467 2.1862,47.2467 L2.6032,47.2467 L2.6032,47.6037 L0.1382,47.6037 L0.1382,47.2467 L0.4612,47.2467 C0.7762,47.2467 0.9372,47.1447 0.9372,46.8647 L0.9372,43.9577 L0.1382,43.9577 L0.1382,43.5757 Z" id="Fill-10" fill="#009EE3"></path>
            <path d="M5.5884,43.8814 C4.8064,43.8814 4.4584,44.3914 4.4584,45.5894 C4.4584,46.7874 4.8064,47.2984 5.5884,47.2984 C6.3704,47.2984 6.7184,46.7874 6.7184,45.5894 C6.7184,44.3914 6.3704,43.8814 5.5884,43.8814 M5.5884,43.4734 C6.6084,43.4734 7.5004,44.0854 7.5004,45.5894 C7.5004,47.0944 6.6084,47.7054 5.5884,47.7054 C4.5684,47.7054 3.6764,47.0944 3.6764,45.5894 C3.6764,44.0854 4.5684,43.4734 5.5884,43.4734" id="Fill-12" fill="#009EE3"></path>
            <path d="M8.3765,43.5757 C8.7085,43.5757 9.4385,43.5507 9.8215,43.5077 L9.8215,44.3657 L9.8385,44.3657 C10.1445,43.7457 10.5265,43.5077 11.1895,43.5077 C11.4195,43.5077 11.6405,43.5237 11.7935,43.5417 L11.7935,44.6297 L11.3515,44.6297 C11.2745,44.2467 11.0965,44.0347 10.7905,44.0347 C10.4765,44.0347 9.8895,44.3407 9.8895,45.3517 L9.8895,46.7547 C9.8895,47.0517 10.0255,47.2467 10.4505,47.2467 L10.7905,47.2467 L10.7905,47.6037 L8.3765,47.6037 L8.3765,47.2467 L8.6145,47.2467 C9.0395,47.2467 9.1755,47.0517 9.1755,46.7547 L9.1755,44.3747 C9.1755,44.1537 9.1165,43.9577 8.7935,43.9577 L8.3765,43.9577 L8.3765,43.5757 Z" id="Fill-14" fill="#009EE3"></path>
            <path d="M15.7539,43.0571 C15.7539,42.4951 15.5669,42.4451 15.2019,42.4451 L14.7089,42.4451 L14.7089,42.0631 L17.5479,42.0631 L17.5479,42.4451 L17.0549,42.4451 C16.6889,42.4451 16.5019,42.4951 16.5019,43.0571 L16.5019,46.6101 C16.5019,47.1701 16.6889,47.2211 17.0549,47.2211 L17.5479,47.2211 L17.5479,47.6041 L14.7089,47.6041 L14.7089,47.2211 L15.2019,47.2211 C15.5669,47.2211 15.7539,47.1701 15.7539,46.6101 L15.7539,43.0571 Z" id="Fill-16" fill="#009EE3"></path>
            <path d="M20.7183,47.2466 L21.0923,47.2466 C21.3473,47.2466 21.5173,47.1536 21.5173,46.7366 L21.5173,45.0626 C21.5173,44.2466 21.2543,43.9156 20.7103,43.9156 C19.9363,43.9156 19.6223,44.5536 19.6223,45.2926 L19.6223,46.7546 C19.6223,47.0516 19.7573,47.2466 20.1823,47.2466 L20.3533,47.2466 L20.3533,47.6036 L18.1093,47.6036 L18.1093,47.2466 L18.3473,47.2466 C18.7723,47.2466 18.9083,47.0516 18.9083,46.7546 L18.9083,44.3746 C18.9083,44.1536 18.8483,43.9576 18.5253,43.9576 L18.1093,43.9576 L18.1093,43.5756 C18.4403,43.5756 19.1713,43.5506 19.5883,43.5076 L19.5883,44.1366 L19.6133,44.1366 C19.9103,43.6266 20.4213,43.4736 20.9133,43.4736 C21.7553,43.4736 22.2313,43.8646 22.2313,44.7396 L22.2313,46.7626 C22.2313,47.1446 22.3583,47.2466 22.6223,47.2466 L22.9113,47.2466 L22.9113,47.6036 L20.7183,47.6036 L20.7183,47.2466 Z" id="Fill-18" fill="#009EE3"></path>
            <path d="M24.229,43.9575 L23.489,43.9575 L23.489,43.5755 C24.28,43.5755 24.399,43.2015 24.45,42.4445 L24.943,42.4445 L24.943,43.5755 L26.039,43.5755 L26.039,43.9575 L24.943,43.9575 L24.943,46.4815 C24.943,47.1365 25.113,47.2645 25.385,47.2645 C25.699,47.2645 25.852,47.0515 25.869,46.4475 L26.396,46.4475 C26.396,47.3655 26.005,47.7055 25.257,47.7055 C24.552,47.7055 24.195,47.3835 24.195,46.6175 C24.195,46.2015 24.229,45.1135 24.229,44.6635 L24.229,43.9575 Z" id="Fill-20" fill="#009EE3"></path>
            <path d="M29.8643,45.2075 C29.8553,44.3655 29.5323,43.8815 28.9293,43.8815 C28.2663,43.8815 27.9013,44.3915 27.8663,45.2075 L29.8643,45.2075 Z M30.5103,46.4565 C30.3823,47.3235 29.8043,47.7055 28.9293,47.7055 C27.7563,47.7055 27.1193,47.0605 27.1193,45.5895 C27.1193,44.2045 27.8163,43.4735 28.9543,43.4735 C29.8393,43.4735 30.5783,43.9575 30.5783,45.1305 L30.5783,45.6145 L27.8663,45.6145 C27.8753,46.7875 28.2663,47.2985 28.9373,47.2985 C29.4223,47.2985 29.8133,47.0345 29.9153,46.4565 L30.5103,46.4565 Z" id="Fill-22" fill="#009EE3"></path>
            <path d="M31.3433,43.5757 C31.6743,43.5757 32.4053,43.5507 32.7883,43.5077 L32.7883,44.3657 L32.8053,44.3657 C33.1113,43.7457 33.4933,43.5077 34.1563,43.5077 C34.3863,43.5077 34.6073,43.5237 34.7603,43.5417 L34.7603,44.6297 L34.3183,44.6297 C34.2413,44.2467 34.0633,44.0347 33.7573,44.0347 C33.4433,44.0347 32.8563,44.3407 32.8563,45.3517 L32.8563,46.7547 C32.8563,47.0517 32.9923,47.2467 33.4173,47.2467 L33.7573,47.2467 L33.7573,47.6037 L31.3433,47.6037 L31.3433,47.2467 L31.5813,47.2467 C32.0063,47.2467 32.1423,47.0517 32.1423,46.7547 L32.1423,44.3747 C32.1423,44.1537 32.0833,43.9577 31.7593,43.9577 L31.3433,43.9577 L31.3433,43.5757 Z" id="Fill-24" fill="#009EE3"></path>
            <path d="M37.752,47.2466 L38.126,47.2466 C38.381,47.2466 38.551,47.1536 38.551,46.7366 L38.551,45.0626 C38.551,44.2466 38.288,43.9156 37.744,43.9156 C36.97,43.9156 36.656,44.5536 36.656,45.2926 L36.656,46.7546 C36.656,47.0516 36.791,47.2466 37.216,47.2466 L37.387,47.2466 L37.387,47.6036 L35.143,47.6036 L35.143,47.2466 L35.381,47.2466 C35.806,47.2466 35.942,47.0516 35.942,46.7546 L35.942,44.3746 C35.942,44.1536 35.882,43.9576 35.559,43.9576 L35.143,43.9576 L35.143,43.5756 C35.474,43.5756 36.205,43.5506 36.622,43.5076 L36.622,44.1366 L36.647,44.1366 C36.944,43.6266 37.455,43.4736 37.947,43.4736 C38.789,43.4736 39.265,43.8646 39.265,44.7396 L39.265,46.7626 C39.265,47.1446 39.392,47.2466 39.656,47.2466 L39.945,47.2466 L39.945,47.6036 L37.752,47.6036 L37.752,47.2466 Z" id="Fill-26" fill="#009EE3"></path>
            <path d="M42.2822,47.2134 C42.7332,47.2134 43.1072,46.8994 43.2252,46.6014 C43.3442,46.3124 43.3792,46.0664 43.3792,45.5894 L42.8352,45.5894 C41.9172,45.5894 41.5352,45.9214 41.5352,46.4904 C41.5352,46.9584 41.8572,47.2134 42.2822,47.2134 L42.2822,47.2134 Z M43.4302,46.9064 L43.4122,46.9064 C43.1922,47.2984 42.8512,47.7054 42.0272,47.7054 C41.3052,47.7054 40.7862,47.2734 40.7862,46.5754 C40.7862,45.7934 41.2962,45.2074 42.4942,45.2074 L43.3792,45.2074 L43.3792,44.7564 C43.3792,44.1534 43.0732,43.8564 42.5632,43.8564 C41.8062,43.8564 41.6702,44.2124 41.6532,44.7654 L40.9052,44.7654 C40.9222,44.2124 41.1012,43.4734 42.6052,43.4734 C43.5232,43.4734 44.0932,43.8304 44.0932,44.5694 C44.0932,45.1904 44.0762,45.8184 44.0762,46.5074 C44.0762,47.2134 44.1432,47.2464 44.7302,47.2464 L44.7302,47.6044 L43.4302,47.6044 L43.4302,46.9064 Z" id="Fill-28" fill="#009EE3"></path>
            <path d="M46.0142,43.9575 L45.2742,43.9575 L45.2742,43.5755 C46.0652,43.5755 46.1842,43.2015 46.2352,42.4445 L46.7282,42.4445 L46.7282,43.5755 L47.8242,43.5755 L47.8242,43.9575 L46.7282,43.9575 L46.7282,46.4815 C46.7282,47.1365 46.8982,47.2645 47.1702,47.2645 C47.4842,47.2645 47.6372,47.0515 47.6542,46.4475 L48.1812,46.4475 C48.1812,47.3655 47.7902,47.7055 47.0422,47.7055 C46.3372,47.7055 45.9802,47.3835 45.9802,46.6175 C45.9802,46.2015 46.0142,45.1135 46.0142,44.6635 L46.0142,43.9575 Z" id="Fill-30" fill="#009EE3"></path>
            <path d="M49.8901,41.5015 C50.2041,41.5015 50.3911,41.7055 50.3911,42.0635 C50.3911,42.4195 50.2041,42.6235 49.8901,42.6235 C49.5761,42.6235 49.3891,42.4195 49.3891,42.0635 C49.3891,41.7055 49.5761,41.5015 49.8901,41.5015 L49.8901,41.5015 Z M48.7511,43.5755 C49.0821,43.5755 49.8131,43.5505 50.2641,43.5075 L50.2641,46.7545 C50.2641,47.0515 50.4001,47.2465 50.8251,47.2465 L50.9941,47.2465 L50.9941,47.6045 L48.7511,47.6045 L48.7511,47.2465 L48.9891,47.2465 C49.4141,47.2465 49.5501,47.0515 49.5501,46.7545 L49.5501,44.3745 C49.5501,44.1535 49.4911,43.9575 49.1671,43.9575 L48.7511,43.9575 L48.7511,43.5755 Z" id="Fill-32" fill="#009EE3"></path>
            <path d="M53.7832,43.8814 C53.0012,43.8814 52.6532,44.3914 52.6532,45.5894 C52.6532,46.7874 53.0012,47.2984 53.7832,47.2984 C54.5652,47.2984 54.9132,46.7874 54.9132,45.5894 C54.9132,44.3914 54.5652,43.8814 53.7832,43.8814 M53.7832,43.4734 C54.8032,43.4734 55.6952,44.0854 55.6952,45.5894 C55.6952,47.0944 54.8032,47.7054 53.7832,47.7054 C52.7632,47.7054 51.8712,47.0944 51.8712,45.5894 C51.8712,44.0854 52.7632,43.4734 53.7832,43.4734" id="Fill-34" fill="#009EE3"></path>
            <path d="M59.0791,47.2466 L59.4531,47.2466 C59.7081,47.2466 59.8781,47.1536 59.8781,46.7366 L59.8781,45.0626 C59.8781,44.2466 59.6151,43.9156 59.0711,43.9156 C58.2971,43.9156 57.9831,44.5536 57.9831,45.2926 L57.9831,46.7546 C57.9831,47.0516 58.1191,47.2466 58.5431,47.2466 L58.7141,47.2466 L58.7141,47.6036 L56.4701,47.6036 L56.4701,47.2466 L56.7081,47.2466 C57.1331,47.2466 57.2691,47.0516 57.2691,46.7546 L57.2691,44.3746 C57.2691,44.1536 57.2091,43.9576 56.8861,43.9576 L56.4701,43.9576 L56.4701,43.5756 C56.8011,43.5756 57.5321,43.5506 57.9491,43.5076 L57.9491,44.1366 L57.9741,44.1366 C58.2711,43.6266 58.7821,43.4736 59.2741,43.4736 C60.1161,43.4736 60.5921,43.8646 60.5921,44.7396 L60.5921,46.7626 C60.5921,47.1446 60.7191,47.2466 60.9831,47.2466 L61.2721,47.2466 L61.2721,47.6036 L59.0791,47.6036 L59.0791,47.2466 Z" id="Fill-36" fill="#009EE3"></path>
            <path d="M63.6094,47.2134 C64.0604,47.2134 64.4344,46.8994 64.5524,46.6014 C64.6714,46.3124 64.7064,46.0664 64.7064,45.5894 L64.1624,45.5894 C63.2444,45.5894 62.8614,45.9214 62.8614,46.4904 C62.8614,46.9584 63.1844,47.2134 63.6094,47.2134 L63.6094,47.2134 Z M64.7564,46.9064 L64.7394,46.9064 C64.5194,47.2984 64.1784,47.7054 63.3544,47.7054 C62.6324,47.7054 62.1134,47.2734 62.1134,46.5754 C62.1134,45.7934 62.6234,45.2074 63.8214,45.2074 L64.7064,45.2074 L64.7064,44.7564 C64.7064,44.1534 64.3994,43.8564 63.8904,43.8564 C63.1334,43.8564 62.9974,44.2124 62.9804,44.7654 L62.2324,44.7654 C62.2494,44.2124 62.4284,43.4734 63.9324,43.4734 C64.8504,43.4734 65.4204,43.8304 65.4204,44.5694 C65.4204,45.1904 65.4024,45.8184 65.4024,46.5074 C65.4024,47.2134 65.4704,47.2464 66.0574,47.2464 L66.0574,47.6044 L64.7564,47.6044 L64.7564,46.9064 Z" id="Fill-38" fill="#009EE3"></path>
            <path d="M66.7456,41.5015 C67.0766,41.5015 67.8076,41.4765 68.2586,41.4345 L68.2586,46.7545 C68.2586,47.0515 68.3946,47.2465 68.8196,47.2465 L68.9896,47.2465 L68.9896,47.6045 L66.7456,47.6045 L66.7456,47.2465 L66.9836,47.2465 C67.4086,47.2465 67.5446,47.0515 67.5446,46.7545 L67.5446,42.3005 C67.5446,42.0795 67.4856,41.8845 67.1626,41.8845 L66.7456,41.8845 L66.7456,41.5015 Z" id="Fill-40" fill="#009EE3"></path>
            <path d="M71.6162,42.063 L76.6142,42.063 L76.6142,43.771 L76.0522,43.771 L75.9852,42.955 C75.9512,42.547 75.8232,42.47 75.2972,42.47 L74.4892,42.47 L74.4892,46.61 C74.4892,47.17 74.6762,47.221 75.0412,47.221 L75.4672,47.221 L75.4672,47.604 L72.7632,47.604 L72.7632,47.221 L73.1882,47.221 C73.5532,47.221 73.7412,47.17 73.7412,46.61 L73.7412,42.47 L72.9332,42.47 C72.4072,42.47 72.2792,42.547 72.2452,42.955 L72.1772,43.771 L71.6162,43.771 L71.6162,42.063 Z" id="Fill-42" fill="#009EE3"></path>
            <path d="M79.6484,45.2075 C79.6404,44.3655 79.3174,43.8815 78.7134,43.8815 C78.0504,43.8815 77.6854,44.3915 77.6514,45.2075 L79.6484,45.2075 Z M80.2944,46.4565 C80.1674,47.3235 79.5884,47.7055 78.7134,47.7055 C77.5414,47.7055 76.9034,47.0605 76.9034,45.5895 C76.9034,44.2045 77.6004,43.4735 78.7394,43.4735 C79.6234,43.4735 80.3624,43.9575 80.3624,45.1305 L80.3624,45.6145 L77.6514,45.6145 C77.6604,46.7875 78.0504,47.2985 78.7224,47.2985 C79.2074,47.2985 79.5974,47.0345 79.7004,46.4565 L80.2944,46.4565 Z" id="Fill-44" fill="#009EE3"></path>
            <path d="M83.6006,43.5757 L85.3516,43.5757 L85.3516,43.9317 C85.0116,43.9407 84.8506,44.0347 84.6376,44.2717 L83.5756,45.4967 L84.4516,46.5757 C84.9436,47.1877 85.0716,47.2137 85.4546,47.2467 L85.4546,47.6037 L83.3716,47.6037 L83.3716,47.2467 L83.6686,47.2467 C83.8986,47.2467 83.9746,47.2047 83.9746,47.0947 C83.9746,47.0437 83.9656,46.9837 83.9076,46.8987 L83.1246,45.8527 L82.4026,46.7617 C82.2576,46.9407 82.1906,47.0347 82.1906,47.0947 C82.1906,47.1957 82.2836,47.2467 82.4116,47.2467 L82.7676,47.2467 L82.7676,47.6037 L80.9316,47.6037 L80.9316,47.2467 C81.3736,47.2387 81.5606,47.0857 81.8836,46.6857 L82.7926,45.5637 L81.7826,44.3237 C81.5436,44.0347 81.3826,43.9747 81.0686,43.9317 L81.0686,43.5757 L83.0566,43.5757 L83.0566,43.9317 L82.8276,43.9317 C82.5976,43.9317 82.4966,44.0097 82.4966,44.0857 C82.4966,44.1617 82.5306,44.2297 82.5806,44.2897 L83.2786,45.2077 L83.9496,44.3487 C84.0506,44.2207 84.0936,44.1617 84.0936,44.0687 C84.0936,43.9747 84.0086,43.9317 83.8896,43.9317 L83.6006,43.9317 L83.6006,43.5757 Z" id="Fill-46" fill="#009EE3"></path>
            <path d="M86.6777,43.9575 L85.9387,43.9575 L85.9387,43.5755 C86.7287,43.5755 86.8477,43.2015 86.8997,42.4445 L87.3917,42.4445 L87.3917,43.5755 L88.4887,43.5755 L88.4887,43.9575 L87.3917,43.9575 L87.3917,46.4815 C87.3917,47.1365 87.5617,47.2645 87.8337,47.2645 C88.1487,47.2645 88.3017,47.0515 88.3187,46.4475 L88.8457,46.4475 C88.8457,47.3655 88.4537,47.7055 87.7057,47.7055 C87.0007,47.7055 86.6437,47.3835 86.6437,46.6175 C86.6437,46.2015 86.6777,45.1135 86.6777,44.6635 L86.6777,43.9575 Z" id="Fill-48" fill="#009EE3"></path>
            <path d="M91.9219,43.9155 C91.2079,43.9155 90.8249,44.4845 90.8249,45.5895 C90.8249,46.7025 91.2079,47.2645 91.9219,47.2645 C92.6449,47.2645 93.0189,46.7025 93.0189,45.5895 C93.0189,44.4845 92.6449,43.9155 91.9219,43.9155 L91.9219,43.9155 Z M89.3129,41.5015 C89.6449,41.5015 90.3749,41.4765 90.8249,41.4345 L90.8249,44.2295 L90.8429,44.2295 C91.0799,43.7205 91.5309,43.4735 92.1429,43.4735 C93.1039,43.4735 93.7669,44.1705 93.7669,45.4535 C93.7669,47.2985 92.8149,47.7055 92.0319,47.7055 C91.4209,47.7055 91.0469,47.4685 90.7579,47.0175 L90.7399,47.0175 L90.7399,47.6045 L89.3129,47.6045 L89.3129,47.2465 L89.6099,47.2465 C89.9499,47.2465 90.1109,47.1885 90.1109,46.5505 L90.1109,42.3005 C90.1109,42.0795 90.0519,41.8845 89.7299,41.8845 L89.3129,41.8845 L89.3129,41.5015 Z" id="Fill-50" fill="#009EE3"></path>
            <path d="M96.8008,43.8814 C96.0198,43.8814 95.6708,44.3914 95.6708,45.5894 C95.6708,46.7874 96.0198,47.2984 96.8008,47.2984 C97.5828,47.2984 97.9318,46.7874 97.9318,45.5894 C97.9318,44.3914 97.5828,43.8814 96.8008,43.8814 M96.8008,43.4734 C97.8218,43.4734 98.7138,44.0854 98.7138,45.5894 C98.7138,47.0944 97.8218,47.7054 96.8008,47.7054 C95.7818,47.7054 94.8888,47.0944 94.8888,45.5894 C94.8888,44.0854 95.7818,43.4734 96.8008,43.4734" id="Fill-52" fill="#009EE3"></path>
            <path d="M101.6533,43.8814 C100.8723,43.8814 100.5233,44.3914 100.5233,45.5894 C100.5233,46.7874 100.8723,47.2984 101.6533,47.2984 C102.4353,47.2984 102.7843,46.7874 102.7843,45.5894 C102.7843,44.3914 102.4353,43.8814 101.6533,43.8814 M101.6533,43.4734 C102.6733,43.4734 103.5663,44.0854 103.5663,45.5894 C103.5663,47.0944 102.6733,47.7054 101.6533,47.7054 C100.6333,47.7054 99.7413,47.0944 99.7413,45.5894 C99.7413,44.0854 100.6333,43.4734 101.6533,43.4734" id="Fill-54" fill="#009EE3"></path>
            <path d="M106.9922,44.3745 C107.0772,44.2895 107.1442,44.2045 107.1442,44.0945 C107.1442,44.0005 107.0772,43.9325 106.8642,43.9325 L106.6262,43.9325 L106.6262,43.5755 L108.5812,43.5755 L108.5812,43.9325 C108.2232,43.9405 107.9612,44.0255 107.6812,44.3155 L106.6602,45.3435 L108.0622,46.8305 C108.3602,47.1535 108.4712,47.2295 108.7682,47.2465 L108.7682,47.6045 L106.8982,47.6045 L106.8982,47.2465 L107.0772,47.2465 C107.2472,47.2465 107.3322,47.2045 107.3322,47.1035 C107.3322,47.0515 107.2632,46.9585 107.1282,46.8055 L105.9042,45.4795 L106.9922,44.3745 Z M104.3402,41.5015 C104.6722,41.5015 105.4022,41.4765 105.8522,41.4345 L105.8522,46.7545 C105.8522,47.0515 105.9892,47.2465 106.4142,47.2465 L106.5842,47.2465 L106.5842,47.6045 L104.3402,47.6045 L104.3402,47.2465 L104.5782,47.2465 C105.0032,47.2465 105.1382,47.0515 105.1382,46.7545 L105.1382,42.3005 C105.1382,42.0795 105.0792,41.8845 104.7572,41.8845 L104.3402,41.8845 L104.3402,41.5015 Z" id="Fill-56" fill="#009EE3"></path>
            <path d="M113.5879,44.5952 L114.2929,44.5952 C115.1009,44.5952 115.6789,44.2642 115.6789,43.4902 C115.6789,42.7422 115.2359,42.5042 114.0719,42.5042 L113.5879,42.5042 L113.5879,44.5952 Z M111.7939,42.0632 L114.4799,42.0632 C115.7209,42.0632 116.4599,42.5802 116.4599,43.4222 C116.4599,44.1452 115.9079,44.6462 115.1679,44.7482 L115.1679,44.7822 C115.8489,44.8672 116.0189,45.1222 116.2739,45.7772 L116.6819,46.8302 C116.8089,47.1612 116.9619,47.2212 117.1489,47.2212 L117.4209,47.2212 L117.4209,47.6042 L116.1459,47.6042 C115.3299,45.2752 115.2199,45.0032 114.2249,45.0032 L113.5879,45.0032 L113.5879,46.6102 C113.5879,47.1702 113.7739,47.2212 114.1399,47.2212 L114.6329,47.2212 L114.6329,47.6042 L111.7939,47.6042 L111.7939,47.2212 L112.2869,47.2212 C112.6519,47.2212 112.8399,47.1702 112.8399,46.6102 L112.8399,43.0572 C112.8399,42.4952 112.6519,42.4452 112.2869,42.4452 L111.7939,42.4452 L111.7939,42.0632 Z" id="Fill-58" fill="#009EE3"></path>
            <path d="M120.9482,45.2075 C120.9402,44.3655 120.6172,43.8815 120.0142,43.8815 C119.3502,43.8815 118.9852,44.3915 118.9512,45.2075 L120.9482,45.2075 Z M121.5942,46.4565 C121.4672,47.3235 120.8892,47.7055 120.0142,47.7055 C118.8412,47.7055 118.2032,47.0605 118.2032,45.5895 C118.2032,44.2045 118.9002,43.4735 120.0392,43.4735 C120.9232,43.4735 121.6622,43.9575 121.6622,45.1305 L121.6622,45.6145 L118.9512,45.6145 C118.9602,46.7875 119.3502,47.2985 120.0222,47.2985 C120.5072,47.2985 120.8972,47.0345 121.0002,46.4565 L121.5942,46.4565 Z" id="Fill-60" fill="#009EE3"></path>
            <polygon id="Clip-63" points="122.6822 47.7056 125.8272 47.7056 125.8272 43.4729 122.6822 43.4729 122.6822 47.7056"></polygon>
            <path d="M122.6992,46.2779 L123.1922,46.2779 C123.2602,47.0599 123.3192,47.2989 124.1192,47.2989 C124.7642,47.2989 125.0792,47.0439 125.0792,46.5759 C125.0792,45.5299 122.6822,46.1419 122.6822,44.6799 C122.6822,43.9499 123.2092,43.4729 124.3482,43.4729 C124.7562,43.4729 125.1892,43.5419 125.5802,43.6689 L125.5802,44.8159 L125.1382,44.8159 C125.1382,44.0429 124.9182,43.8819 124.2972,43.8819 C123.6512,43.8819 123.4312,44.1539 123.4312,44.5359 C123.4312,45.4969 125.8272,44.9189 125.8272,46.4729 C125.8272,47.2139 125.2402,47.7059 124.1522,47.7059 C123.7192,47.7059 123.1582,47.6469 122.6992,47.5359 L122.6992,46.2779 Z" id="Fill-62" fill="#009EE3"></path>
            <path d="M129.7031,45.2075 C129.6951,44.3655 129.3721,43.8815 128.7691,43.8815 C128.1051,43.8815 127.7401,44.3915 127.7061,45.2075 L129.7031,45.2075 Z M130.3491,46.4565 C130.2221,47.3235 129.6441,47.7055 128.7691,47.7055 C127.5961,47.7055 126.9581,47.0605 126.9581,45.5895 C126.9581,44.2045 127.6551,43.4735 128.7941,43.4735 C129.6781,43.4735 130.4171,43.9575 130.4171,45.1305 L130.4171,45.6145 L127.7061,45.6145 C127.7151,46.7875 128.1051,47.2985 128.7771,47.2985 C129.2621,47.2985 129.6521,47.0345 129.7551,46.4565 L130.3491,46.4565 Z" id="Fill-65" fill="#009EE3"></path>
            <path d="M132.8994,47.2134 C133.3494,47.2134 133.7234,46.8994 133.8424,46.6014 C133.9614,46.3124 133.9954,46.0664 133.9954,45.5894 L133.4514,45.5894 C132.5334,45.5894 132.1514,45.9214 132.1514,46.4904 C132.1514,46.9584 132.4734,47.2134 132.8994,47.2134 L132.8994,47.2134 Z M134.0474,46.9064 L134.0294,46.9064 C133.8084,47.2984 133.4684,47.7054 132.6444,47.7054 C131.9224,47.7054 131.4034,47.2734 131.4034,46.5754 C131.4034,45.7934 131.9134,45.2074 133.1114,45.2074 L133.9954,45.2074 L133.9954,44.7564 C133.9954,44.1534 133.6894,43.8564 133.1794,43.8564 C132.4224,43.8564 132.2874,44.2124 132.2704,44.7654 L131.5224,44.7654 C131.5394,44.2124 131.7174,43.4734 133.2214,43.4734 C134.1394,43.4734 134.7094,43.8304 134.7094,44.5694 C134.7094,45.1904 134.6924,45.8184 134.6924,46.5074 C134.6924,47.2134 134.7604,47.2464 135.3464,47.2464 L135.3464,47.6044 L134.0474,47.6044 L134.0474,46.9064 Z" id="Fill-67" fill="#009EE3"></path>
            <path d="M136.0361,43.5757 C136.3671,43.5757 137.0981,43.5507 137.4801,43.5077 L137.4801,44.3657 L137.4981,44.3657 C137.8041,43.7457 138.1861,43.5077 138.8491,43.5077 C139.0781,43.5077 139.3001,43.5237 139.4521,43.5417 L139.4521,44.6297 L139.0111,44.6297 C138.9331,44.2467 138.7561,44.0347 138.4491,44.0347 C138.1351,44.0347 137.5491,44.3407 137.5491,45.3517 L137.5491,46.7547 C137.5491,47.0517 137.6841,47.2467 138.1091,47.2467 L138.4491,47.2467 L138.4491,47.6037 L136.0361,47.6037 L136.0361,47.2467 L136.2731,47.2467 C136.6981,47.2467 136.8351,47.0517 136.8351,46.7547 L136.8351,44.3747 C136.8351,44.1537 136.7751,43.9577 136.4521,43.9577 L136.0361,43.9577 L136.0361,43.5757 Z" id="Fill-69" fill="#009EE3"></path>
            <path d="M143.4375,44.9273 L142.8425,44.9273 C142.8425,44.1963 142.6565,43.8813 142.0605,43.8813 C141.3985,43.8813 140.8715,44.4503 140.8715,45.6413 C140.8715,46.9073 141.4835,47.2983 141.9845,47.2983 C142.5965,47.2983 142.9115,46.9323 142.9705,46.2703 L143.5315,46.2703 C143.5315,47.3583 142.7235,47.7053 141.9505,47.7053 C140.8115,47.7053 140.0885,47.0763 140.0885,45.6233 C140.0885,44.0943 141.0155,43.4733 142.0605,43.4733 C142.5195,43.4733 143.0035,43.5413 143.4375,43.7373 L143.4375,44.9273 Z" id="Fill-71" fill="#009EE3"></path>
            <path d="M146.7197,47.2466 L147.0937,47.2466 C147.3487,47.2466 147.5187,47.1536 147.5187,46.7366 L147.5187,45.0626 C147.5187,44.2466 147.2547,43.9156 146.7107,43.9156 C145.9377,43.9156 145.6227,44.5536 145.6227,45.2926 L145.6227,46.7546 C145.6227,47.0516 145.7597,47.2466 146.1847,47.2466 L146.3547,47.2466 L146.3547,47.6036 L144.1107,47.6036 L144.1107,47.2466 L144.3487,47.2466 C144.7737,47.2466 144.9087,47.0516 144.9087,46.7546 L144.9087,42.3006 C144.9087,42.0796 144.8497,41.8846 144.5277,41.8846 L144.1107,41.8846 L144.1107,41.5016 C144.4427,41.5016 145.1727,41.4756 145.6227,41.4346 L145.6227,44.1366 L145.6487,44.1366 C145.9467,43.6266 146.4557,43.4736 146.9497,43.4736 C147.7567,43.4736 148.2327,43.8646 148.2327,44.7396 L148.2327,46.7626 C148.2327,47.1446 148.3607,47.2466 148.6237,47.2466 L148.9117,47.2466 L148.9117,47.6036 L146.7197,47.6036 L146.7197,47.2466 Z" id="Fill-73" fill="#009EE3"></path>
        </g>
    </g>
</svg>