<?xml version="1.0" encoding="UTF-8"?>
<svg width="163px" height="52px" viewBox="0 0 163 52" version="1.1" xmlns="http://www.w3.org/2000/svg" xmlns:xlink="http://www.w3.org/1999/xlink">
    <!-- Generator: Sketch 39.1 (31720) - http://www.bohemiancoding.com/sketch -->
    <title>Slice 1</title>
    <desc>Created with Sketch.</desc>
    <defs>
        <polygon id="path-1" points="2.48689958e-14 14.2653 2.48689958e-14 50.5347 161.575 50.5347 161.575 -0.0003 2.48689958e-14 -0.0003 2.48689958e-14 14.2653 117.6389 14.2653 117.6389 0.0003 -0.0001 0.0003 -0.0001 14.2653"></polygon>
    </defs>
    <g id="gei-logo" stroke="none" stroke-width="1" fill="none" fill-rule="evenodd">
        <g transform="translate(1.000000, 1.000000)">
            <path d="M84.1318,36.4048 L84.9308,36.4048 L84.9308,35.9878 C84.9308,34.7388 85.5688,34.3308 86.5788,34.3308 C86.8608,34.3308 87.2428,34.3898 87.5318,34.4588 L87.5318,35.5808 L87.0378,35.5808 C87.0218,35.0028 86.9108,34.6878 86.4948,34.6878 C86.0108,34.6878 85.6458,35.0098 85.6458,35.9278 L85.6458,36.4048 L86.7158,36.4048 L86.7158,36.7868 L85.6458,36.7868 L85.6458,39.4388 C85.6458,39.9738 85.7728,40.0758 86.1808,40.0758 L86.5968,40.0758 L86.5968,40.4328 L84.1318,40.4328 L84.1318,40.0758 L84.4548,40.0758 C84.7698,40.0758 84.9308,39.9738 84.9308,39.6938 L84.9308,36.7868 L84.1318,36.7868 L84.1318,36.4048 Z" id="Fill-1" fill="#009EE3"></path>
            <path d="M89.582,36.7105 C88.8,36.7105 88.452,37.2205 88.452,38.4185 C88.452,39.6165 88.8,40.1275 89.582,40.1275 C90.364,40.1275 90.712,39.6165 90.712,38.4185 C90.712,37.2205 90.364,36.7105 89.582,36.7105 M89.582,36.3025 C90.602,36.3025 91.495,36.9145 91.495,38.4185 C91.495,39.9235 90.602,40.5345 89.582,40.5345 C88.561,40.5345 87.67,39.9235 87.67,38.4185 C87.67,36.9145 88.561,36.3025 89.582,36.3025" id="Fill-3" fill="#009EE3"></path>
            <path d="M92.3701,36.4048 C92.7021,36.4048 93.4321,36.3798 93.8151,36.3368 L93.8151,37.1948 L93.8331,37.1948 C94.1381,36.5748 94.5201,36.3368 95.1841,36.3368 C95.4131,36.3368 95.6341,36.3528 95.7881,36.3708 L95.7881,37.4588 L95.3451,37.4588 C95.2681,37.0758 95.0911,36.8638 94.7841,36.8638 C94.4701,36.8638 93.8841,37.1698 93.8841,38.1808 L93.8841,39.5838 C93.8841,39.8808 94.0181,40.0758 94.4441,40.0758 L94.7841,40.0758 L94.7841,40.4328 L92.3701,40.4328 L92.3701,40.0758 L92.6081,40.0758 C93.0341,40.0758 93.1691,39.8808 93.1691,39.5838 L93.1691,37.2038 C93.1691,36.9828 93.1101,36.7868 92.7861,36.7868 L92.3701,36.7868 L92.3701,36.4048 Z" id="Fill-5" fill="#009EE3"></path>
            <path d="M99.7471,35.8863 C99.7471,35.3243 99.5611,35.2743 99.1961,35.2743 L98.7021,35.2743 L98.7021,34.8923 L101.5421,34.8923 L101.5421,35.2743 L101.0481,35.2743 C100.6831,35.2743 100.4951,35.3243 100.4951,35.8863 L100.4951,39.4393 C100.4951,39.9993 100.6831,40.0503 101.0481,40.0503 L101.5421,40.0503 L101.5421,40.4333 L98.7021,40.4333 L98.7021,40.0503 L99.1961,40.0503 C99.5611,40.0503 99.7471,39.9993 99.7471,39.4393 L99.7471,35.8863 Z" id="Fill-7" fill="#009EE3"></path>
            <path d="M104.7119,40.0757 L105.0869,40.0757 C105.3409,40.0757 105.5109,39.9827 105.5109,39.5657 L105.5109,37.8917 C105.5109,37.0757 105.2469,36.7447 104.7039,36.7447 C103.9309,36.7447 103.6159,37.3827 103.6159,38.1217 L103.6159,39.5837 C103.6159,39.8807 103.7509,40.0757 104.1769,40.0757 L104.3469,40.0757 L104.3469,40.4327 L102.1029,40.4327 L102.1029,40.0757 L102.3409,40.0757 C102.7669,40.0757 102.9009,39.8807 102.9009,39.5837 L102.9009,37.2037 C102.9009,36.9827 102.8429,36.7867 102.5189,36.7867 L102.1029,36.7867 L102.1029,36.4047 C102.4349,36.4047 103.1649,36.3797 103.5809,36.3367 L103.5809,36.9657 L103.6069,36.9657 C103.9049,36.4557 104.4149,36.3027 104.9069,36.3027 C105.7489,36.3027 106.2259,36.6937 106.2259,37.5687 L106.2259,39.5917 C106.2259,39.9737 106.3529,40.0757 106.6159,40.0757 L106.9049,40.0757 L106.9049,40.4327 L104.7119,40.4327 L104.7119,40.0757 Z" id="Fill-9" fill="#009EE3"></path>
            <path d="M108.2236,36.7867 L107.4836,36.7867 L107.4836,36.4047 C108.2746,36.4047 108.3936,36.0307 108.4446,35.2737 L108.9366,35.2737 L108.9366,36.4047 L110.0326,36.4047 L110.0326,36.7867 L108.9366,36.7867 L108.9366,39.3107 C108.9366,39.9657 109.1066,40.0937 109.3776,40.0937 C109.6926,40.0937 109.8466,39.8807 109.8626,39.2767 L110.3896,39.2767 C110.3896,40.1947 109.9986,40.5347 109.2506,40.5347 C108.5456,40.5347 108.1886,40.2127 108.1886,39.4467 C108.1886,39.0307 108.2236,37.9427 108.2236,37.4927 L108.2236,36.7867 Z" id="Fill-11" fill="#009EE3"></path>
            <path d="M113.8584,38.0367 C113.8484,37.1947 113.5264,36.7107 112.9224,36.7107 C112.2604,36.7107 111.8954,37.2207 111.8604,38.0367 L113.8584,38.0367 Z M114.5044,39.2857 C114.3764,40.1527 113.7974,40.5347 112.9224,40.5347 C111.7514,40.5347 111.1124,39.8887 111.1124,38.4187 C111.1124,37.0337 111.8094,36.3027 112.9484,36.3027 C113.8334,36.3027 114.5714,36.7867 114.5714,37.9597 L114.5714,38.4437 L111.8604,38.4437 C111.8704,39.6167 112.2604,40.1277 112.9304,40.1277 C113.4174,40.1277 113.8074,39.8637 113.9094,39.2857 L114.5044,39.2857 Z" id="Fill-13" fill="#009EE3"></path>
            <path d="M115.3369,36.4048 C115.6689,36.4048 116.3989,36.3798 116.7819,36.3368 L116.7819,37.1948 L116.7999,37.1948 C117.1049,36.5748 117.4869,36.3368 118.1509,36.3368 C118.3799,36.3368 118.6009,36.3528 118.7549,36.3708 L118.7549,37.4588 L118.3119,37.4588 C118.2349,37.0758 118.0579,36.8638 117.7509,36.8638 C117.4369,36.8638 116.8509,37.1698 116.8509,38.1808 L116.8509,39.5838 C116.8509,39.8808 116.9849,40.0758 117.4109,40.0758 L117.7509,40.0758 L117.7509,40.4328 L115.3369,40.4328 L115.3369,40.0758 L115.5749,40.0758 C116.0009,40.0758 116.1359,39.8808 116.1359,39.5838 L116.1359,37.2038 C116.1359,36.9828 116.0769,36.7868 115.7529,36.7868 L115.3369,36.7868 L115.3369,36.4048 Z" id="Fill-15" fill="#009EE3"></path>
            <path d="M121.7451,40.0757 L122.1201,40.0757 C122.3741,40.0757 122.5441,39.9827 122.5441,39.5657 L122.5441,37.8917 C122.5441,37.0757 122.2821,36.7447 121.7371,36.7447 C120.9641,36.7447 120.6491,37.3827 120.6491,38.1217 L120.6491,39.5837 C120.6491,39.8807 120.7861,40.0757 121.2101,40.0757 L121.3801,40.0757 L121.3801,40.4327 L119.1361,40.4327 L119.1361,40.0757 L119.3741,40.0757 C119.8001,40.0757 119.9361,39.8807 119.9361,39.5837 L119.9361,37.2037 C119.9361,36.9827 119.8761,36.7867 119.5541,36.7867 L119.1361,36.7867 L119.1361,36.4047 C119.4681,36.4047 120.1981,36.3797 120.6161,36.3367 L120.6161,36.9657 L120.6411,36.9657 C120.9381,36.4557 121.4481,36.3027 121.9401,36.3027 C122.7821,36.3027 123.2591,36.6937 123.2591,37.5687 L123.2591,39.5917 C123.2591,39.9737 123.3861,40.0757 123.6491,40.0757 L123.9381,40.0757 L123.9381,40.4327 L121.7451,40.4327 L121.7451,40.0757 Z" id="Fill-17" fill="#009EE3"></path>
            <path d="M126.2764,40.0425 C126.7274,40.0425 127.1004,39.7285 127.2194,39.4305 C127.3384,39.1415 127.3724,38.8955 127.3724,38.4185 L126.8294,38.4185 C125.9114,38.4185 125.5284,38.7505 125.5284,39.3195 C125.5284,39.7875 125.8504,40.0425 126.2764,40.0425 L126.2764,40.0425 Z M127.4224,39.7355 L127.4074,39.7355 C127.1864,40.1275 126.8444,40.5345 126.0204,40.5345 C125.2994,40.5345 124.7804,40.1025 124.7804,39.4045 C124.7804,38.6225 125.2904,38.0365 126.4894,38.0365 L127.3724,38.0365 L127.3724,37.5855 C127.3724,36.9825 127.0674,36.6855 126.5574,36.6855 C125.7994,36.6855 125.6654,37.0415 125.6474,37.5945 L124.8994,37.5945 C124.9174,37.0415 125.0944,36.3025 126.5984,36.3025 C127.5164,36.3025 128.0874,36.6595 128.0874,37.3995 C128.0874,38.0195 128.0694,38.6475 128.0694,39.3365 C128.0694,40.0425 128.1374,40.0755 128.7234,40.0755 L128.7234,40.4335 L127.4224,40.4335 L127.4224,39.7355 Z" id="Fill-19" fill="#009EE3"></path>
            <path d="M130.0088,36.7867 L129.2688,36.7867 L129.2688,36.4047 C130.0598,36.4047 130.1788,36.0307 130.2298,35.2737 L130.7218,35.2737 L130.7218,36.4047 L131.8178,36.4047 L131.8178,36.7867 L130.7218,36.7867 L130.7218,39.3107 C130.7218,39.9657 130.8918,40.0937 131.1628,40.0937 C131.4778,40.0937 131.6318,39.8807 131.6478,39.2767 L132.1748,39.2767 C132.1748,40.1947 131.7838,40.5347 131.0358,40.5347 C130.3308,40.5347 129.9738,40.2127 129.9738,39.4467 C129.9738,39.0307 130.0088,37.9427 130.0088,37.4927 L130.0088,36.7867 Z" id="Fill-21" fill="#009EE3"></path>
            <path d="M133.8838,34.3306 C134.1978,34.3306 134.3858,34.5346 134.3858,34.8926 C134.3858,35.2486 134.1978,35.4526 133.8838,35.4526 C133.5698,35.4526 133.3818,35.2486 133.3818,34.8926 C133.3818,34.5346 133.5698,34.3306 133.8838,34.3306 L133.8838,34.3306 Z M132.7448,36.4046 C133.0768,36.4046 133.8078,36.3796 134.2588,36.3366 L134.2588,39.5836 C134.2588,39.8806 134.3938,40.0756 134.8198,40.0756 L134.9888,40.0756 L134.9888,40.4336 L132.7448,40.4336 L132.7448,40.0756 L132.9838,40.0756 C133.4068,40.0756 133.5438,39.8806 133.5438,39.5836 L133.5438,37.2036 C133.5438,36.9826 133.4858,36.7866 133.1608,36.7866 L132.7448,36.7866 L132.7448,36.4046 Z" id="Fill-23" fill="#009EE3"></path>
            <path d="M137.7764,36.7105 C136.9954,36.7105 136.6474,37.2205 136.6474,38.4185 C136.6474,39.6165 136.9954,40.1275 137.7764,40.1275 C138.5594,40.1275 138.9074,39.6165 138.9074,38.4185 C138.9074,37.2205 138.5594,36.7105 137.7764,36.7105 M137.7764,36.3025 C138.7974,36.3025 139.6884,36.9145 139.6884,38.4185 C139.6884,39.9235 138.7974,40.5345 137.7764,40.5345 C136.7564,40.5345 135.8644,39.9235 135.8644,38.4185 C135.8644,36.9145 136.7564,36.3025 137.7764,36.3025" id="Fill-25" fill="#009EE3"></path>
            <path d="M143.0732,40.0757 L143.4462,40.0757 C143.7022,40.0757 143.8722,39.9827 143.8722,39.5657 L143.8722,37.8917 C143.8722,37.0757 143.6082,36.7447 143.0652,36.7447 C142.2922,36.7447 141.9772,37.3827 141.9772,38.1217 L141.9772,39.5837 C141.9772,39.8807 142.1122,40.0757 142.5382,40.0757 L142.7082,40.0757 L142.7082,40.4327 L140.4642,40.4327 L140.4642,40.0757 L140.7022,40.0757 C141.1262,40.0757 141.2622,39.8807 141.2622,39.5837 L141.2622,37.2037 C141.2622,36.9827 141.2042,36.7867 140.8802,36.7867 L140.4642,36.7867 L140.4642,36.4047 C140.7962,36.4047 141.5262,36.3797 141.9422,36.3367 L141.9422,36.9657 L141.9682,36.9657 C142.2642,36.4557 142.7762,36.3027 143.2682,36.3027 C144.1102,36.3027 144.5852,36.6937 144.5852,37.5687 L144.5852,39.5917 C144.5852,39.9737 144.7142,40.0757 144.9772,40.0757 L145.2662,40.0757 L145.2662,40.4327 L143.0732,40.4327 L143.0732,40.0757 Z" id="Fill-27" fill="#009EE3"></path>
            <path d="M147.6025,40.0425 C148.0535,40.0425 148.4285,39.7285 148.5455,39.4305 C148.6655,39.1415 148.7005,38.8955 148.7005,38.4185 L148.1555,38.4185 C147.2375,38.4185 146.8565,38.7505 146.8565,39.3195 C146.8565,39.7875 147.1785,40.0425 147.6025,40.0425 L147.6025,40.0425 Z M148.7515,39.7355 L148.7335,39.7355 C148.5125,40.1275 148.1725,40.5345 147.3485,40.5345 C146.6265,40.5345 146.1085,40.1025 146.1085,39.4045 C146.1085,38.6225 146.6185,38.0365 147.8155,38.0365 L148.7005,38.0365 L148.7005,37.5855 C148.7005,36.9825 148.3935,36.6855 147.8835,36.6855 C147.1275,36.6855 146.9915,37.0415 146.9735,37.5945 L146.2255,37.5945 C146.2435,37.0415 146.4225,36.3025 147.9265,36.3025 C148.8445,36.3025 149.4135,36.6595 149.4135,37.3995 C149.4135,38.0195 149.3975,38.6475 149.3975,39.3365 C149.3975,40.0425 149.4635,40.0755 150.0515,40.0755 L150.0515,40.4335 L148.7515,40.4335 L148.7515,39.7355 Z" id="Fill-29" fill="#009EE3"></path>
            <path d="M150.7393,34.3306 C151.0713,34.3306 151.8013,34.3056 152.2533,34.2636 L152.2533,39.5836 C152.2533,39.8806 152.3873,40.0756 152.8133,40.0756 L152.9833,40.0756 L152.9833,40.4336 L150.7393,40.4336 L150.7393,40.0756 L150.9773,40.0756 C151.4033,40.0756 151.5383,39.8806 151.5383,39.5836 L151.5383,35.1296 C151.5383,34.9086 151.4793,34.7136 151.1553,34.7136 L150.7393,34.7136 L150.7393,34.3306 Z" id="Fill-31" fill="#009EE3"></path>
            <path d="M84.2764,44.8921 L89.2744,44.8921 L89.2744,46.6001 L88.7134,46.6001 L88.6454,45.7841 C88.6104,45.3761 88.4834,45.2991 87.9564,45.2991 L87.1494,45.2991 L87.1494,49.4391 C87.1494,49.9991 87.3374,50.0501 87.7024,50.0501 L88.1264,50.0501 L88.1264,50.4331 L85.4234,50.4331 L85.4234,50.0501 L85.8484,50.0501 C86.2134,50.0501 86.4014,49.9991 86.4014,49.4391 L86.4014,45.2991 L85.5934,45.2991 C85.0674,45.2991 84.9394,45.3761 84.9054,45.7841 L84.8374,46.6001 L84.2764,46.6001 L84.2764,44.8921 Z" id="Fill-33" fill="#009EE3"></path>
            <path d="M92.3096,48.0367 C92.2996,47.1947 91.9776,46.7107 91.3736,46.7107 C90.7106,46.7107 90.3456,47.2207 90.3116,48.0367 L92.3096,48.0367 Z M92.9556,49.2857 C92.8276,50.1527 92.2486,50.5347 91.3736,50.5347 C90.2016,50.5347 89.5636,49.8897 89.5636,48.4187 C89.5636,47.0337 90.2606,46.3027 91.3996,46.3027 C92.2846,46.3027 93.0226,46.7867 93.0226,47.9597 L93.0226,48.4437 L90.3116,48.4437 C90.3206,49.6167 90.7106,50.1277 91.3816,50.1277 C91.8686,50.1277 92.2586,49.8637 92.3606,49.2857 L92.9556,49.2857 Z" id="Fill-35" fill="#009EE3"></path>
            <path d="M96.2607,46.4048 L98.0127,46.4048 L98.0127,46.7608 C97.6727,46.7698 97.5107,46.8638 97.2977,47.1008 L96.2357,48.3258 L97.1127,49.4048 C97.6047,50.0168 97.7317,50.0428 98.1147,50.0758 L98.1147,50.4328 L96.0317,50.4328 L96.0317,50.0758 L96.3287,50.0758 C96.5597,50.0758 96.6357,50.0338 96.6357,49.9238 C96.6357,49.8728 96.6277,49.8128 96.5677,49.7278 L95.7857,48.6818 L95.0637,49.5908 C94.9187,49.7698 94.8507,49.8638 94.8507,49.9238 C94.8507,50.0248 94.9447,50.0758 95.0717,50.0758 L95.4287,50.0758 L95.4287,50.4328 L93.5927,50.4328 L93.5927,50.0758 C94.0337,50.0678 94.2217,49.9148 94.5437,49.5148 L95.4537,48.3928 L94.4427,47.1528 C94.2037,46.8638 94.0437,46.8038 93.7297,46.7608 L93.7297,46.4048 L95.7177,46.4048 L95.7177,46.7608 L95.4877,46.7608 C95.2587,46.7608 95.1567,46.8388 95.1567,46.9148 C95.1567,46.9908 95.1907,47.0588 95.2407,47.1188 L95.9387,48.0368 L96.6107,47.1778 C96.7117,47.0498 96.7547,46.9908 96.7547,46.8978 C96.7547,46.8038 96.6687,46.7608 96.5497,46.7608 L96.2607,46.7608 L96.2607,46.4048 Z" id="Fill-37" fill="#009EE3"></path>
            <path d="M99.3389,46.7867 L98.5989,46.7867 L98.5989,46.4047 C99.3899,46.4047 99.5089,46.0307 99.5599,45.2737 L100.0539,45.2737 L100.0539,46.4047 L101.1499,46.4047 L101.1499,46.7867 L100.0539,46.7867 L100.0539,49.3107 C100.0539,49.9657 100.2239,50.0937 100.4949,50.0937 C100.8099,50.0937 100.9619,49.8807 100.9799,49.2767 L101.5069,49.2767 C101.5069,50.1947 101.1139,50.5347 100.3679,50.5347 C99.6609,50.5347 99.3059,50.2127 99.3059,49.4467 C99.3059,49.0307 99.3389,47.9427 99.3389,47.4927 L99.3389,46.7867 Z" id="Fill-39" fill="#009EE3"></path>
            <path d="M104.583,46.7447 C103.87,46.7447 103.487,47.3137 103.487,48.4187 C103.487,49.5317 103.87,50.0937 104.583,50.0937 C105.306,50.0937 105.679,49.5317 105.679,48.4187 C105.679,47.3137 105.306,46.7447 104.583,46.7447 L104.583,46.7447 Z M101.974,44.3307 C102.306,44.3307 103.036,44.3047 103.487,44.2627 L103.487,47.0587 L103.503,47.0587 C103.741,46.5497 104.192,46.3027 104.804,46.3027 C105.765,46.3027 106.427,46.9997 106.427,48.2827 C106.427,50.1277 105.476,50.5347 104.694,50.5347 C104.081,50.5347 103.708,50.2977 103.419,49.8457 L103.401,49.8457 L103.401,50.4327 L101.974,50.4327 L101.974,50.0757 L102.272,50.0757 C102.612,50.0757 102.772,50.0167 102.772,49.3797 L102.772,45.1297 C102.772,44.9087 102.714,44.7137 102.39,44.7137 L101.974,44.7137 L101.974,44.3307 Z" id="Fill-41" fill="#009EE3"></path>
            <path d="M109.4619,46.7105 C108.6809,46.7105 108.3329,47.2205 108.3329,48.4185 C108.3329,49.6165 108.6809,50.1275 109.4619,50.1275 C110.2449,50.1275 110.5929,49.6165 110.5929,48.4185 C110.5929,47.2205 110.2449,46.7105 109.4619,46.7105 M109.4619,46.3025 C110.4829,46.3025 111.3739,46.9145 111.3739,48.4185 C111.3739,49.9235 110.4829,50.5345 109.4619,50.5345 C108.4419,50.5345 107.5499,49.9235 107.5499,48.4185 C107.5499,46.9145 108.4419,46.3025 109.4619,46.3025" id="Fill-43" fill="#009EE3"></path>
            <path d="M114.3154,46.7105 C113.5344,46.7105 113.1864,47.2205 113.1864,48.4185 C113.1864,49.6165 113.5344,50.1275 114.3154,50.1275 C115.0984,50.1275 115.4464,49.6165 115.4464,48.4185 C115.4464,47.2205 115.0984,46.7105 114.3154,46.7105 M114.3154,46.3025 C115.3364,46.3025 116.2274,46.9145 116.2274,48.4185 C116.2274,49.9235 115.3364,50.5345 114.3154,50.5345 C113.2954,50.5345 112.4034,49.9235 112.4034,48.4185 C112.4034,46.9145 113.2954,46.3025 114.3154,46.3025" id="Fill-45" fill="#009EE3"></path>
            <path d="M119.6533,47.2036 C119.7393,47.1186 119.8073,47.0336 119.8073,46.9236 C119.8073,46.8296 119.7393,46.7616 119.5263,46.7616 L119.2883,46.7616 L119.2883,46.4046 L121.2433,46.4046 L121.2433,46.7616 C120.8853,46.7696 120.6223,46.8546 120.3423,47.1446 L119.3233,48.1726 L120.7253,49.6596 C121.0223,49.9826 121.1333,50.0586 121.4303,50.0756 L121.4303,50.4336 L119.5613,50.4336 L119.5613,50.0756 L119.7393,50.0756 C119.9093,50.0756 119.9933,50.0336 119.9933,49.9326 C119.9933,49.8806 119.9263,49.7876 119.7903,49.6346 L118.5653,48.3086 L119.6533,47.2036 Z M117.0033,44.3306 C117.3333,44.3306 118.0653,44.3056 118.5143,44.2636 L118.5143,49.5836 C118.5143,49.8806 118.6513,50.0756 119.0753,50.0756 L119.2473,50.0756 L119.2473,50.4336 L117.0033,50.4336 L117.0033,50.0756 L117.2413,50.0756 C117.6653,50.0756 117.8013,49.8806 117.8013,49.5836 L117.8013,45.1296 C117.8013,44.9086 117.7413,44.7136 117.4193,44.7136 L117.0033,44.7136 L117.0033,44.3306 Z" id="Fill-47" fill="#009EE3"></path>
            <path d="M126.249,47.4244 L126.956,47.4244 C127.763,47.4244 128.341,47.0934 128.341,46.3204 C128.341,45.5714 127.899,45.3334 126.733,45.3334 L126.249,45.3334 L126.249,47.4244 Z M124.456,44.8924 L127.142,44.8924 C128.384,44.8924 129.122,45.4094 129.122,46.2514 C129.122,46.9744 128.569,47.4754 127.831,47.5774 L127.831,47.6114 C128.511,47.6964 128.681,47.9514 128.936,48.6064 L129.343,49.6594 C129.472,49.9904 129.624,50.0504 129.811,50.0504 L130.083,50.0504 L130.083,50.4334 L128.808,50.4334 C127.993,48.1044 127.882,47.8324 126.888,47.8324 L126.249,47.8324 L126.249,49.4394 C126.249,49.9994 126.436,50.0504 126.802,50.0504 L127.296,50.0504 L127.296,50.4334 L124.456,50.4334 L124.456,50.0504 L124.95,50.0504 C125.315,50.0504 125.503,49.9994 125.503,49.4394 L125.503,45.8864 C125.503,45.3244 125.315,45.2744 124.95,45.2744 L124.456,45.2744 L124.456,44.8924 Z" id="Fill-49" fill="#009EE3"></path>
            <path d="M133.6104,48.0367 C133.6024,47.1947 133.2784,46.7107 132.6744,46.7107 C132.0124,46.7107 131.6474,47.2207 131.6124,48.0367 L133.6104,48.0367 Z M134.2564,49.2857 C134.1304,50.1527 133.5514,50.5347 132.6744,50.5347 C131.5034,50.5347 130.8664,49.8897 130.8664,48.4187 C130.8664,47.0337 131.5614,46.3027 132.7004,46.3027 C133.5854,46.3027 134.3254,46.7867 134.3254,47.9597 L134.3254,48.4437 L131.6124,48.4437 C131.6224,49.6167 132.0124,50.1277 132.6844,50.1277 C133.1694,50.1277 133.5594,49.8637 133.6614,49.2857 L134.2564,49.2857 Z" id="Fill-51" fill="#009EE3"></path>
            <path d="M135.3623,49.107 L135.8543,49.107 C135.9233,49.889 135.9813,50.128 136.7803,50.128 C137.4263,50.128 137.7413,49.873 137.7413,49.405 C137.7413,48.359 135.3443,48.971 135.3443,47.509 C135.3443,46.779 135.8723,46.302 137.0103,46.302 C137.4193,46.302 137.8523,46.371 138.2433,46.498 L138.2433,47.645 L137.8013,47.645 C137.8013,46.872 137.5793,46.711 136.9603,46.711 C136.3133,46.711 136.0923,46.983 136.0923,47.365 C136.0923,48.326 138.4893,47.748 138.4893,49.302 C138.4893,50.043 137.9033,50.535 136.8153,50.535 C136.3823,50.535 135.8213,50.476 135.3623,50.365 L135.3623,49.107 Z" id="Fill-53" fill="#009EE3"></path>
            <path d="M142.3662,48.0367 C142.3562,47.1947 142.0342,46.7107 141.4302,46.7107 C140.7662,46.7107 140.4012,47.2207 140.3682,48.0367 L142.3662,48.0367 Z M143.0112,49.2857 C142.8842,50.1527 142.3052,50.5347 141.4302,50.5347 C140.2572,50.5347 139.6202,49.8897 139.6202,48.4187 C139.6202,47.0337 140.3172,46.3027 141.4562,46.3027 C142.3412,46.3027 143.0792,46.7867 143.0792,47.9597 L143.0792,48.4437 L140.3682,48.4437 C140.3762,49.6167 140.7662,50.1277 141.4382,50.1277 C141.9232,50.1277 142.3132,49.8637 142.4172,49.2857 L143.0112,49.2857 Z" id="Fill-56" fill="#009EE3"></path>
            <path d="M145.5615,50.0425 C146.0125,50.0425 146.3855,49.7285 146.5045,49.4305 C146.6245,49.1415 146.6595,48.8955 146.6595,48.4185 L146.1145,48.4185 C145.1965,48.4185 144.8135,48.7505 144.8135,49.3195 C144.8135,49.7875 145.1375,50.0425 145.5615,50.0425 L145.5615,50.0425 Z M146.7105,49.7355 L146.6925,49.7355 C146.4715,50.1275 146.1315,50.5345 145.3075,50.5345 C144.5855,50.5345 144.0655,50.1025 144.0655,49.4045 C144.0655,48.6225 144.5755,48.0365 145.7745,48.0365 L146.6595,48.0365 L146.6595,47.5855 C146.6595,46.9825 146.3525,46.6855 145.8425,46.6855 C145.0865,46.6855 144.9505,47.0415 144.9325,47.5945 L144.1845,47.5945 C144.2025,47.0415 144.3795,46.3025 145.8855,46.3025 C146.8035,46.3025 147.3725,46.6595 147.3725,47.3995 C147.3725,48.0195 147.3545,48.6475 147.3545,49.3365 C147.3545,50.0425 147.4225,50.0755 148.0085,50.0755 L148.0085,50.4335 L146.7105,50.4335 L146.7105,49.7355 Z" id="Fill-58" fill="#009EE3"></path>
            <path d="M148.6982,46.4048 C149.0302,46.4048 149.7602,46.3798 150.1432,46.3368 L150.1432,47.1948 L150.1612,47.1948 C150.4662,46.5748 150.8482,46.3368 151.5122,46.3368 C151.7412,46.3368 151.9622,46.3528 152.1162,46.3708 L152.1162,47.4588 L151.6732,47.4588 C151.5962,47.0758 151.4192,46.8638 151.1122,46.8638 C150.7982,46.8638 150.2122,47.1698 150.2122,48.1808 L150.2122,49.5838 C150.2122,49.8808 150.3462,50.0758 150.7722,50.0758 L151.1122,50.0758 L151.1122,50.4328 L148.6982,50.4328 L148.6982,50.0758 L148.9362,50.0758 C149.3622,50.0758 149.4972,49.8808 149.4972,49.5838 L149.4972,47.2038 C149.4972,46.9828 149.4382,46.7868 149.1142,46.7868 L148.6982,46.7868 L148.6982,46.4048 Z" id="Fill-60" fill="#009EE3"></path>
            <path d="M156.1006,47.7564 L155.5066,47.7564 C155.5066,47.0254 155.3196,46.7104 154.7256,46.7104 C154.0616,46.7104 153.5346,47.2794 153.5346,48.4704 C153.5346,49.7364 154.1476,50.1274 154.6476,50.1274 C155.2606,50.1274 155.5756,49.7614 155.6336,49.0994 L156.1946,49.0994 C156.1946,50.1874 155.3876,50.5344 154.6146,50.5344 C153.4756,50.5344 152.7526,49.9054 152.7526,48.4524 C152.7526,46.9234 153.6786,46.3024 154.7256,46.3024 C155.1846,46.3024 155.6686,46.3704 156.1006,46.5664 L156.1006,47.7564 Z" id="Fill-62" fill="#009EE3"></path>
            <path d="M159.3818,50.0757 L159.7568,50.0757 C160.0108,50.0757 160.1808,49.9827 160.1808,49.5657 L160.1808,47.8917 C160.1808,47.0757 159.9168,46.7447 159.3738,46.7447 C158.6008,46.7447 158.2858,47.3827 158.2858,48.1217 L158.2858,49.5837 C158.2858,49.8807 158.4228,50.0757 158.8468,50.0757 L159.0168,50.0757 L159.0168,50.4327 L156.7728,50.4327 L156.7728,50.0757 L157.0108,50.0757 C157.4368,50.0757 157.5708,49.8807 157.5708,49.5837 L157.5708,45.1297 C157.5708,44.9087 157.5128,44.7137 157.1908,44.7137 L156.7728,44.7137 L156.7728,44.3307 C157.1048,44.3307 157.8348,44.3047 158.2858,44.2637 L158.2858,46.9657 L158.3118,46.9657 C158.6088,46.4557 159.1178,46.3027 159.6118,46.3027 C160.4188,46.3027 160.8958,46.6937 160.8958,47.5687 L160.8958,49.5917 C160.8958,49.9737 161.0228,50.0757 161.2858,50.0757 L161.5748,50.0757 L161.5748,50.4327 L159.3818,50.4327 L159.3818,50.0757 Z" id="Fill-64" fill="#009EE3"></path>
            <path d="M2.3955,33.9117 L2.3955,21.5767 C2.3955,20.9257 1.9085,20.5997 1.4215,20.5997 C0.9345,20.5997 0.4465,20.9257 0.4465,21.5767 L0.4465,33.9117 C0.4465,34.5597 0.9345,34.8667 1.4215,34.8667 C1.9085,34.8667 2.3955,34.5597 2.3955,33.9117 M13.9005,33.9117 L13.9005,21.5767 C13.9005,20.9257 13.3915,20.5997 12.9045,20.5997 C12.4185,20.5997 11.9505,20.9257 11.9505,21.5767 L11.9505,30.0707 L8.0665,21.3127 C7.7615,20.5997 7.2735,20.5997 7.0305,20.5997 L6.8075,20.5997 C6.1575,20.5997 5.7715,21.0687 5.7715,21.6177 L5.7715,33.9117 C5.7715,34.5597 6.2795,34.8667 6.7665,34.8667 C7.2535,34.8667 7.7205,34.5597 7.7205,33.9117 L7.7205,25.2947 L11.6045,34.0527 C11.9305,34.8047 12.4375,34.8667 12.7015,34.8667 L12.9245,34.8667 C13.4725,34.8667 13.9005,34.4197 13.9005,33.9117 M24.6305,31.1077 C24.6305,26.9007 18.4925,26.4537 18.4925,24.5017 L18.4925,24.0937 C18.4925,23.0977 19.5095,22.5297 20.4045,22.5297 L20.5865,22.5297 C21.6645,22.5297 22.2345,22.7517 22.4785,23.8497 C22.6005,24.3987 22.9255,24.7457 23.4945,24.7457 C24.0415,24.7457 24.4275,24.3787 24.4275,23.8297 L24.4275,23.7087 C24.4275,21.6347 22.5395,20.5997 20.5865,20.5997 L20.4045,20.5997 C18.5535,20.5997 16.5435,22.0017 16.5435,24.1957 L16.5435,24.5627 C16.5435,28.2427 22.6815,28.2617 22.6815,31.1077 C22.6815,32.3067 21.7875,32.9587 20.5865,32.9587 L20.3835,32.9587 C19.2245,32.9587 18.3715,32.2257 18.3715,30.9257 C18.3715,30.2737 17.8835,29.9497 17.3955,29.9497 C16.9085,29.9497 16.4215,30.2737 16.4215,30.9257 C16.4215,33.4257 18.2485,34.8667 20.3835,34.8667 L20.5865,34.8667 C22.8655,34.8667 24.6305,33.4037 24.6305,31.1077 M33.6545,21.6977 C33.6545,21.2087 33.3305,20.7227 32.6785,20.7227 L26.8695,20.7227 C26.2185,20.7227 25.8925,21.2087 25.8925,21.6977 C25.8925,22.1637 26.2185,22.6507 26.8695,22.6507 L28.7995,22.6507 L28.7995,33.9117 C28.7995,34.5597 29.2875,34.8667 29.7735,34.8667 C30.2605,34.8667 30.7485,34.5597 30.7485,33.9117 L30.7485,22.6507 L32.6785,22.6507 C33.3305,22.6507 33.6545,22.1637 33.6545,21.6977 M37.6995,33.9117 L37.6995,21.5767 C37.6995,20.9257 37.2115,20.5997 36.7245,20.5997 C36.2385,20.5997 35.7505,20.9257 35.7505,21.5767 L35.7505,33.9117 C35.7505,34.5597 36.2385,34.8667 36.7245,34.8667 C37.2115,34.8667 37.6995,34.5597 37.6995,33.9117 M47.5565,21.6977 C47.5565,21.2087 47.2305,20.7227 46.5805,20.7227 L40.7705,20.7227 C40.1195,20.7227 39.7945,21.2087 39.7945,21.6977 C39.7945,22.1637 40.1195,22.6507 40.7705,22.6507 L42.7015,22.6507 L42.7015,33.9117 C42.7015,34.5597 43.1885,34.8667 43.6755,34.8667 C44.1625,34.8667 44.6505,34.5597 44.6505,33.9117 L44.6505,22.6507 L46.5805,22.6507 C47.2305,22.6507 47.5565,22.1637 47.5565,21.6977 M57.5965,30.9257 L57.5965,21.5767 C57.5965,20.9257 57.1095,20.5997 56.6235,20.5997 C56.1345,20.5997 55.6475,20.9257 55.6475,21.5767 L55.6475,30.9257 C55.6475,32.0037 54.7125,32.9367 53.6345,32.9367 L53.4515,32.9367 C52.3325,32.9367 51.4185,32.0037 51.4185,30.9257 L51.4185,21.5767 C51.4185,20.9257 50.9305,20.5997 50.4435,20.5997 C49.9575,20.5997 49.4695,20.9257 49.4695,21.5767 L49.4695,30.9257 C49.4695,33.1207 51.2555,34.8667 53.4315,34.8667 L53.6345,34.8667 C55.8305,34.8667 57.5965,33.1207 57.5965,30.9257 M67.2915,21.6977 C67.2915,21.2087 66.9655,20.7227 66.3165,20.7227 L60.5055,20.7227 C59.8545,20.7227 59.5295,21.2087 59.5295,21.6977 C59.5295,22.1637 59.8545,22.6507 60.5055,22.6507 L62.4355,22.6507 L62.4355,33.9117 C62.4355,34.5597 62.9235,34.8667 63.4105,34.8667 C63.8975,34.8667 64.3845,34.5597 64.3845,33.9117 L64.3845,22.6507 L66.3165,22.6507 C66.9655,22.6507 67.2915,22.1637 67.2915,21.6977" id="Fill-66" fill="#B00345"></path>
            <mask id="mask-2" fill="white">
                <use xlink:href="#path-1"></use>
            </mask>
            <g id="Clip-69"></g>
            <path d="M8.0869,10.3243 L8.0869,7.2753 C8.0869,6.7263 7.6429,6.3013 7.0969,6.3013 L4.5089,6.3013 C3.8609,6.3013 3.5379,6.7673 3.5379,7.2563 C3.5379,7.7423 3.8609,8.2283 4.5089,8.2283 L6.1479,8.2283 L6.1479,10.3243 C6.1479,11.4223 5.2169,12.3573 4.1449,12.3573 L3.9419,12.3573 C2.8289,12.3573 1.9389,11.5233 1.9389,10.3853 L1.9389,3.8813 C1.9389,2.7623 2.8289,1.9283 3.9419,1.9283 L4.1449,1.9283 C5.1359,1.9283 6.0669,2.4163 6.1679,3.3323 C6.2489,3.9633 6.6929,4.2073 7.1179,4.2073 C7.6019,4.2073 8.0669,3.9223 8.0669,3.2913 L8.0669,3.1893 C7.9049,1.4223 6.2289,0.0003 4.1449,0.0003 L3.9419,0.0003 C1.7769,0.0003 -0.0001,1.6853 -0.0001,3.8813 L-0.0001,10.3853 C-0.0001,12.6013 1.7569,14.2653 3.9419,14.2653 L4.1449,14.2653 C6.3299,14.2653 8.0869,12.5413 8.0869,10.3243 L8.0869,10.3243 Z M19.1289,13.2113 C19.1289,12.7223 18.8049,12.2363 18.1579,12.2363 L12.9809,12.2363 L12.9809,7.9043 L16.4999,7.9043 C17.1469,7.9043 17.4709,7.4183 17.4709,6.9293 C17.4709,6.4413 17.1469,5.9763 16.4999,5.9763 L12.9809,5.9763 L12.9809,2.0513 L18.1579,2.0513 C18.8049,2.0513 19.1289,1.5623 19.1289,1.0953 C19.1289,0.6093 18.8049,0.1233 18.1579,0.1233 L12.0119,0.1233 C11.5069,0.1233 11.0419,0.5903 11.0419,1.0953 L11.0419,13.1893 C11.0419,13.6973 11.5069,14.1643 12.0119,14.1643 L18.1579,14.1643 C18.8049,14.1643 19.1289,13.6783 19.1289,13.2113 L19.1289,13.2113 Z M29.1409,10.3863 L29.1409,3.8813 C29.1409,1.6853 27.3829,0.0003 25.1969,0.0003 L25.0159,0.0003 C22.8299,0.0003 21.0529,1.6853 21.0529,3.8813 L21.0529,10.3863 C21.0529,12.6013 22.8299,14.2653 24.9949,14.2653 L25.1969,14.2653 C27.3829,14.2653 29.1409,12.6013 29.1409,10.3863 L29.1409,10.3863 Z M27.2009,10.3863 C27.2009,11.5233 26.3109,12.3573 25.1969,12.3573 L24.9949,12.3573 C23.8819,12.3573 22.9919,11.5233 22.9919,10.3863 L22.9919,3.8813 C22.9919,2.7623 23.8819,1.9283 24.9949,1.9283 L25.1969,1.9283 C26.3109,1.9283 27.2009,2.7423 27.2009,3.8813 L27.2009,10.3863 Z M50.5769,10.3243 L50.5769,7.2753 C50.5769,6.7263 50.1319,6.3013 49.5869,6.3013 L46.9979,6.3013 C46.3519,6.3013 46.0269,6.7673 46.0269,7.2563 C46.0269,7.7423 46.3519,8.2283 46.9979,8.2283 L48.6389,8.2283 L48.6389,10.3243 C48.6389,11.4223 47.7069,12.3573 46.6339,12.3573 L46.4319,12.3573 C45.3189,12.3573 44.4279,11.5233 44.4279,10.3853 L44.4279,3.8813 C44.4279,2.7623 45.3189,1.9283 46.4319,1.9283 L46.6339,1.9283 C47.6259,1.9283 48.5569,2.4163 48.6579,3.3323 C48.7379,3.9633 49.1839,4.2073 49.6079,4.2073 C50.0919,4.2073 50.5569,3.9223 50.5569,3.2913 L50.5569,3.1893 C50.3949,1.4223 48.7179,0.0003 46.6339,0.0003 L46.4319,0.0003 C44.2679,0.0003 42.4899,1.6853 42.4899,3.8813 L42.4899,10.3853 C42.4899,12.6013 44.2469,14.2653 46.4319,14.2653 L46.6339,14.2653 C48.8189,14.2653 50.5769,12.5413 50.5769,10.3243 L50.5769,10.3243 Z M67.6059,13.2113 C67.6059,12.7223 67.2809,12.2363 66.6339,12.2363 L61.4569,12.2363 L61.4569,7.9043 L64.9769,7.9043 C65.6229,7.9043 65.9449,7.4183 65.9449,6.9293 C65.9449,6.4413 65.6229,5.9763 64.9769,5.9763 L61.4569,5.9763 L61.4569,2.0513 L66.6339,2.0513 C67.2809,2.0513 67.6059,1.5623 67.6059,1.0953 C67.6059,0.6093 67.2809,0.1233 66.6339,0.1233 L60.4859,0.1233 C59.9829,0.1233 59.5179,0.5903 59.5179,1.0953 L59.5179,13.1893 C59.5179,13.6973 59.9829,14.1643 60.4859,14.1643 L66.6339,14.1643 C67.2809,14.1643 67.6059,13.6783 67.6059,13.2113 L67.6059,13.2113 Z M77.5749,10.8943 L77.5749,10.8343 C77.5749,10.2033 77.2309,9.7753 76.5839,9.7753 C76.0379,9.7753 75.7759,10.1013 75.6329,10.6093 C75.4509,11.6053 74.7029,12.3573 73.6519,12.3573 L73.4709,12.3573 C72.3579,12.3573 71.4669,11.5453 71.4669,10.4063 L71.4669,3.8593 C71.4669,2.7423 72.3369,1.9283 73.4709,1.9283 L73.6519,1.9283 C74.7029,1.9283 75.4509,2.6813 75.6329,3.6783 C75.7759,4.1853 76.0379,4.5103 76.5839,4.5103 C77.2309,4.5103 77.5749,4.0843 77.5749,3.4533 L77.5749,3.3923 C77.5749,1.4223 75.6129,0.0003 73.6519,0.0003 L73.4709,0.0003 C71.2859,0.0003 69.5269,1.6853 69.5269,3.8813 L69.5269,10.3863 C69.5269,12.6013 71.2859,14.2653 73.4709,14.2653 L73.6519,14.2653 C75.6129,14.2653 77.5749,12.8873 77.5749,10.8943 L77.5749,10.8943 Z M88.0099,13.3323 C88.0099,13.1893 87.9709,13.0473 87.9089,12.8853 L84.5519,5.9553 L87.5449,1.5233 C87.6469,1.3613 87.7069,1.1793 87.7069,0.9743 C87.7069,0.4283 87.2819,0.0003 86.6949,0.0003 C86.4339,0.0003 86.1289,0.1233 85.9269,0.4283 L81.8609,6.4413 L81.8609,0.9743 C81.8609,0.3263 81.3779,0.0003 80.8929,0.0003 C80.4079,0.0003 79.9229,0.3263 79.9229,0.9743 L79.9229,13.3103 C79.9229,13.9613 80.4079,14.2653 80.8929,14.2653 C81.3779,14.2653 81.8609,13.9613 81.8609,13.3103 L81.8609,9.9183 L83.2979,7.8243 L86.1509,13.7363 C86.3319,14.1253 86.6759,14.2653 86.9989,14.2653 C87.5859,14.2653 88.0099,13.8403 88.0099,13.3323 L88.0099,13.3323 Z M98.2839,13.2113 C98.2839,12.7223 97.9599,12.2363 97.3129,12.2363 L92.1369,12.2363 L92.1369,7.9043 L95.6539,7.9043 C96.3019,7.9043 96.6259,7.4183 96.6259,6.9293 C96.6259,6.4413 96.3019,5.9763 95.6539,5.9763 L92.1369,5.9763 L92.1369,2.0513 L97.3129,2.0513 C97.9599,2.0513 98.2839,1.5623 98.2839,1.0953 C98.2839,0.6093 97.9599,0.1233 97.3129,0.1233 L91.1659,0.1233 C90.6619,0.1233 90.1969,0.5903 90.1969,1.0953 L90.1969,13.1893 C90.1969,13.6973 90.6619,14.1643 91.1659,14.1643 L97.3129,14.1643 C97.9599,14.1643 98.2839,13.6783 98.2839,13.2113 L98.2839,13.2113 Z M108.6799,4.2673 L108.6799,4.0843 C108.6799,1.8883 106.9219,0.1233 104.7359,0.1233 L101.4399,0.1233 C100.9359,0.1233 100.4709,0.5903 100.4709,1.0953 L100.4709,13.3103 C100.4709,13.9613 100.9549,14.2653 101.4599,14.2653 C101.9449,14.2653 102.4099,13.9613 102.4099,13.3103 L102.4099,8.2093 L104.0489,8.2093 L106.6589,13.7363 C106.8409,14.1253 107.1639,14.2653 107.4859,14.2653 C108.1129,14.2653 108.5179,13.8593 108.5179,13.3103 C108.5179,13.1893 108.4969,13.0473 108.4159,12.8853 L106.1129,8.0253 C107.6489,7.4983 108.6799,6.0153 108.6799,4.2673 L108.6799,4.2673 Z M106.7399,4.2673 C106.7399,5.3873 105.9319,6.2793 104.8189,6.2793 L102.4099,6.2793 L102.4099,2.0513 L104.7969,2.0513 C105.9099,2.0513 106.7399,2.9453 106.7399,4.0843 L106.7399,4.2673 Z M117.6389,1.0953 C117.6389,0.6093 117.3149,0.1233 116.6669,0.1233 L110.8869,0.1233 C110.2379,0.1233 109.9149,0.6093 109.9149,1.0953 C109.9149,1.5623 110.2379,2.0513 110.8869,2.0513 L112.8069,2.0513 L112.8069,13.3103 C112.8069,13.9613 113.2919,14.2653 113.7759,14.2653 C114.2619,14.2653 114.7459,13.9613 114.7459,13.3103 L114.7459,2.0513 L116.6669,2.0513 C117.3149,2.0513 117.6389,1.5623 117.6389,1.0953 L117.6389,1.0953 Z" id="Fill-68" fill="#B00345"></path>
            <path d="M31.418,4.2676 L31.418,4.0836 C31.418,1.8886 33.184,0.1226 35.381,0.1226 L38.693,0.1226 C39.2,0.1226 39.668,0.5896 39.668,1.0956 L39.668,13.3106 C39.668,13.9606 39.18,14.2656 38.674,14.2656 C38.185,14.2656 37.719,13.9606 37.719,13.3106 L37.719,8.2086 L36.071,8.2086 L33.448,13.7386 C33.266,14.1226 32.94,14.2656 32.616,14.2656 C31.986,14.2656 31.58,13.8596 31.58,13.3106 C31.58,13.1896 31.602,13.0466 31.682,12.8846 L33.997,8.0256 C32.453,7.4976 31.418,6.0156 31.418,4.2676 L31.418,4.2676 Z M33.367,4.2676 C33.367,5.3866 34.18,6.2816 35.299,6.2816 L37.719,6.2816 L37.719,2.0506 L35.319,2.0506 C34.2,2.0506 33.367,2.9456 33.367,4.0836 L33.367,4.2676 Z" id="Fill-71" fill="#009EE3"></path>
            <path d="M77.4609,33.687 C77.4609,33.199 77.1369,32.712 76.4899,32.712 L71.3129,32.712 L71.3129,28.381 L74.8319,28.381 C75.4789,28.381 75.8029,27.895 75.8029,27.406 C75.8029,26.918 75.4789,26.453 74.8319,26.453 L71.3129,26.453 L71.3129,22.527 L76.4899,22.527 C77.1369,22.527 77.4609,22.039 77.4609,21.572 C77.4609,21.086 77.1369,20.6 76.4899,20.6 L70.3439,20.6 C69.8379,20.6 69.3749,21.066 69.3749,21.572 L69.3749,33.666 C69.3749,34.173 69.8379,34.64 70.3439,34.64 L76.4899,34.64 C77.1369,34.64 77.4609,34.154 77.4609,33.687" id="Fill-73" fill="#B00345"></path>
        </g>
    </g>
</svg>